ISO-10303-21;
HEADER;
FILE_DESCRIPTION (( 'STEP AP203' ),
    '1' );
FILE_NAME ('nut.STEP',
    '2014-06-11T16:44:09',
    ( '' ),
    ( '' ),
    'SwSTEP 2.0',
    'SolidWorks 2013',
    '' );
FILE_SCHEMA (( 'CONFIG_CONTROL_DESIGN' ));
ENDSEC;

DATA;
#1 = DIRECTION ( 'NONE',  ( 1.000000000000000000, 0.0000000000000000000, 0.0000000000000000000 ) ) ;
#2 = VERTEX_POINT ( 'NONE', #80 ) ;
#3 = CARTESIAN_POINT ( 'NONE',  ( -3.500000000000001800, 4.286263797015738100E-016, 6.000000000000000000 ) ) ;
#4 = CARTESIAN_POINT ( 'NONE',  ( 0.6891510546992625200, 5.375621144953311300, 5.857000109542594800 ) ) ;
#5 = DIRECTION ( 'NONE',  ( 1.000000000000000000, 0.0000000000000000000, -0.0000000000000000000 ) ) ;
#6 = FACE_OUTER_BOUND ( 'NONE', #488, .T. ) ;
#7 = CARTESIAN_POINT ( 'NONE',  ( -5.000000000000004400, -2.886751345948139800, 6.000000000000000000 ) ) ;
#8 = ORIENTED_EDGE ( 'NONE', *, *, #252, .F. ) ;
#9 = AXIS2_PLACEMENT_3D ( 'NONE', #690, #878, #236 ) ;
#10 = VERTEX_POINT ( 'NONE', #176 ) ;
#11 = ORIENTED_EDGE ( 'NONE', *, *, #484, .F. ) ;
#12 = B_SPLINE_CURVE_WITH_KNOTS ( 'NONE', 3,
 ( #151, #276, #91, #722, #828, #640 ),
 .UNSPECIFIED., .F., .F.,
 ( 4, 2, 4 ),
 ( 0.009612507750627186400, 0.01026677219241846000, 0.01092103663420973500 ),
 .UNSPECIFIED. ) ;
#13 = DIRECTION ( 'NONE',  ( 0.0000000000000000000, 0.0000000000000000000, 1.000000000000000000 ) ) ;
#14 = VERTEX_POINT ( 'NONE', #274 ) ;
#15 = DIRECTION ( 'NONE',  ( 0.8660254037844387100, -0.4999999999999999400, 0.0000000000000000000 ) ) ;
#16 = CARTESIAN_POINT ( 'NONE',  ( 3.000000000000000400, 3.673940397442060400E-016, 5.500000000000001800 ) ) ;
#17 = CARTESIAN_POINT ( 'NONE',  ( 4.999999999999997300, -2.496223106883670900, 0.3047358804677398100 ) ) ;
#18 = DATE_AND_TIME ( #432, #914 ) ;
#19 = B_SPLINE_CURVE_WITH_KNOTS ( 'NONE', 3,
 ( #555, #455, #357, #263 ),
 .UNSPECIFIED., .F., .F.,
 ( 4, 4 ),
 ( 0.008907927803310856600, 0.01021840846846768500 ),
 .UNSPECIFIED. ) ;
#20 = ORIENTED_EDGE ( 'NONE', *, *, #317, .T. ) ;
#21 = DIRECTION ( 'NONE',  ( 0.4999999999999989500, -0.8660254037844392600, 0.0000000000000000000 ) ) ;
#22 = FACE_OUTER_BOUND ( 'NONE', #794, .T. ) ;
#23 = CIRCLE ( 'NONE', #334, 3.000000000000000400 ) ;
#24 = CARTESIAN_POINT ( 'NONE',  ( 4.999999999999997300, -2.886751345948143300, 0.0000000000000000000 ) ) ;
#25 = PERSON_AND_ORGANIZATION ( #161, #564 ) ;
#26 = EDGE_CURVE ( 'NONE', #2, #110, #175, .T. ) ;
#27 = VERTEX_POINT ( 'NONE', #744 ) ;
#28 = CONICAL_SURFACE ( 'NONE', #605, 6.060738440128182500, 0.7853981633974439500 ) ;
#29 = AXIS2_PLACEMENT_3D ( 'NONE', #512, #742, #297 ) ;
#30 = CARTESIAN_POINT ( 'NONE',  ( 4.999999999999997300, -2.886751345948170800, 5.500000000000024000 ) ) ;
#31 = CARTESIAN_POINT ( 'NONE',  ( 3.951679365796340700, -3.491999546302663000, -1.919590079348089400E-013 ) ) ;
#32 = CONICAL_SURFACE ( 'NONE', #123, 3.500000000000003100, 0.7853981633974469500 ) ;
#33 = EDGE_CURVE ( 'NONE', #532, #39, #843, .T. ) ;
#34 = EDGE_LOOP ( 'NONE', ( #882, #422, #923, #576, #66, #416, #654, #294, #322, #250, #163, #182 ) ) ;
#35 = VERTEX_POINT ( 'NONE', #201 ) ;
#36 = DIRECTION ( 'NONE',  ( 0.7071067811865465700, 8.659560562354921800E-017, -0.7071067811865484600 ) ) ;
#37 = ADVANCED_FACE ( 'NONE', ( #407 ), #826, .F. ) ;
#38 = EDGE_CURVE ( 'NONE', #14, #661, #457, .T. ) ;
#39 = VERTEX_POINT ( 'NONE', #221 ) ;
#40 = ADVANCED_FACE ( 'NONE', ( #22 ), #622, .T. ) ;
#41 = ORIENTED_EDGE ( 'NONE', *, *, #487, .F. ) ;
#42 = DIRECTION ( 'NONE',  ( -0.0000000000000000000, -0.0000000000000000000, -1.000000000000000000 ) ) ;
#43 = CARTESIAN_POINT ( 'NONE',  ( -3.951679365796072900, 3.491999546302798900, 6.000000000000000000 ) ) ;
#44 = EDGE_CURVE ( 'NONE', #438, #877, #526, .T. ) ;
#45 = APPROVAL_ROLE ( '' ) ;
#46 = EDGE_CURVE ( 'NONE', #39, #114, #588, .T. ) ;
#47 = ORIENTED_EDGE ( 'NONE', *, *, #620, .T. ) ;
#48 = CARTESIAN_POINT ( 'NONE',  ( -1.048320634203908200, 5.168254491541580900, 0.0000000000000000000 ) ) ;
#49 = DIRECTION ( 'NONE',  ( 1.000000000000000000, 0.0000000000000000000, 0.0000000000000000000 ) ) ;
#50 = ADVANCED_FACE ( 'NONE', ( #895 ), #32, .F. ) ;
#51 = APPROVAL_DATE_TIME ( #18, #133 ) ;
#52 = EDGE_CURVE ( 'NONE', #771, #27, #601, .T. ) ;
#53 = CARTESIAN_POINT ( 'NONE',  ( 1.048320634203966600, -5.168254491541568500, 6.000000000000000000 ) ) ;
#54 = ORIENTED_EDGE ( 'NONE', *, *, #544, .T. ) ;
#55 = DIRECTION ( 'NONE',  ( 1.000000000000000000, 0.0000000000000000000, 0.0000000000000000000 ) ) ;
#56 = CARTESIAN_POINT ( 'NONE',  ( -0.8680506665480090000, -5.272333405894543500, 5.933834187608418600 ) ) ;
#57 = CARTESIAN_POINT ( 'NONE',  ( 0.6863486535435091600, -5.377239112014986100, 5.867142761077677600 ) ) ;
#58 = LOCAL_TIME ( 22, 14, 9.000000000000000000, #379 ) ;
#59 = DIRECTION ( 'NONE',  ( -0.0000000000000000000, -0.0000000000000000000, -1.000000000000000000 ) ) ;
#60 = ORIENTED_EDGE ( 'NONE', *, *, #266, .F. ) ;
#61 = CONICAL_SURFACE ( 'NONE', #29, 6.060738440128182500, 0.7853981633974439500 ) ;
#62 = ORIENTED_EDGE ( 'NONE', *, *, #125, .T. ) ;
#63 = AXIS2_PLACEMENT_3D ( 'NONE', #836, #647, #381 ) ;
#64 = VERTEX_POINT ( 'NONE', #364 ) ;
#65 = CARTESIAN_POINT ( 'NONE',  ( 0.0000000000000000000, 0.0000000000000000000, 0.0000000000000000000 ) ) ;
#66 = ORIENTED_EDGE ( 'NONE', *, *, #252, .T. ) ;
#67 = DIRECTION ( 'NONE',  ( -0.8660254037844387100, 0.4999999999999998900, 0.0000000000000000000 ) ) ;
#68 = CARTESIAN_POINT ( 'NONE',  ( 4.999999999999997300, -2.495350358951697900, 5.695700493498254200 ) ) ;
#69 = PRODUCT_DEFINITION_SHAPE ( 'NONE', 'NONE',  #571 ) ;
#70 = APPROVAL_DATE_TIME ( #142, #271 ) ;
#71 = CARTESIAN_POINT ( 'NONE',  ( 0.0000000000000000000, 0.0000000000000000000, 0.0000000000000000000 ) ) ;
#72 = EDGE_LOOP ( 'NONE', ( #20, #428, #443 ) ) ;
#73 = DIRECTION ( 'NONE',  ( 0.0000000000000000000, -1.000000000000000000, 0.0000000000000000000 ) ) ;
#74 = CARTESIAN_POINT ( 'NONE',  ( 3.500000000000003100, 4.286263797015740000E-016, 0.0000000000000000000 ) ) ;
#75 = DIRECTION ( 'NONE',  ( -6.009258394948631200E-016, 1.000000000000000000, 0.0000000000000000000 ) ) ;
#76 = ORIENTED_EDGE ( 'NONE', *, *, #476, .F. ) ;
#77 = CARTESIAN_POINT ( 'NONE',  ( 6.869282575713077200E-016, 5.773502691896244900, 5.500000000000040000 ) ) ;
#78 = CARTESIAN_POINT ( 'NONE',  ( 4.313651346456519600, 3.283014925829382600, 5.867142761077680300 ) ) ;
#79 = AXIS2_PLACEMENT_3D ( 'NONE', #713, #623, #559 ) ;
#80 = CARTESIAN_POINT ( 'NONE',  ( -5.000000000000004400, -1.676254945238747400, 1.294017786939608700E-016 ) ) ;
#81 = CARTESIAN_POINT ( 'NONE',  ( 4.999999999999994700, 2.094979359186491600, 5.866902719012494500 ) ) ;
#82 = VECTOR ( 'NONE', #533, 1000.000000000000000 ) ;
#83 = COORDINATED_UNIVERSAL_TIME_OFFSET ( 5, 30, .AHEAD. ) ;
#84 = CARTESIAN_POINT ( 'NONE',  ( 7.204740682582895900E-016, 5.773502691896244900, 6.000000000000000000 ) ) ;
#85 = ORIENTED_EDGE ( 'NONE', *, *, #125, .F. ) ;
#86 = CARTESIAN_POINT ( 'NONE',  ( -2.810791057955210500E-015, -5.773502691896268900, 6.000000000000000000 ) ) ;
#87 = CARTESIAN_POINT ( 'NONE',  ( 0.0000000000000000000, 0.0000000000000000000, 0.7872357482319007900 ) ) ;
#88 = LINE ( 'NONE', #823, #253 ) ;
#89 = ADVANCED_BREP_SHAPE_REPRESENTATION ( 'nut', ( #867, #288 ), #699 ) ;
#90 = FACE_OUTER_BOUND ( 'NONE', #892, .T. ) ;
#91 = CARTESIAN_POINT ( 'NONE',  ( 0.6891510546993020500, -5.375621144953312200, 0.1429998904574101600 ) ) ;
#92 = ORIENTED_EDGE ( 'NONE', *, *, #560, .T. ) ;
#93 = DIRECTION ( 'NONE',  ( 0.0000000000000000000, 0.0000000000000000000, 1.000000000000000000 ) ) ;
#94 = B_SPLINE_CURVE_WITH_KNOTS ( 'NONE', 3,
 ( #270, #462, #563, #648 ),
 .UNSPECIFIED., .F., .F.,
 ( 4, 4 ),
 ( 0.004897086451132920200, 0.006207842442394286000 ),
 .UNSPECIFIED. ) ;
#95 = CARTESIAN_POINT ( 'NONE',  ( -0.6863486535434728500, 5.377239112014984300, 5.867142761077682100 ) ) ;
#96 = PLANE ( 'NONE',  #198 ) ;
#97 = B_SPLINE_CURVE_WITH_KNOTS ( 'NONE', 3,
 ( #710, #525, #848, #183 ),
 .UNSPECIFIED., .F., .F.,
 ( 4, 4 ),
 ( 0.004897086451132924600, 0.006207842442394240900 ),
 .UNSPECIFIED. ) ;
#98 = CARTESIAN_POINT ( 'NONE',  ( -5.000000000000004400, 1.676254945238748500, 6.000000000000000000 ) ) ;
#99 = EDGE_CURVE ( 'NONE', #852, #259, #94, .T. ) ;
#100 = VECTOR ( 'NONE', #128, 1000.000000000000000 ) ;
#101 = ORIENTED_EDGE ( 'NONE', *, *, #796, .T. ) ;
#102 = CARTESIAN_POINT ( 'NONE',  ( -5.000000000000004400, -1.676254945238748500, 6.000000000000000000 ) ) ;
#103 = CIRCLE ( 'NONE', #273, 3.500000000000003100 ) ;
#104 = B_SPLINE_CURVE_WITH_KNOTS ( 'NONE', 3,
 ( #291, #493, #767, #31 ),
 .UNSPECIFIED., .F., .F.,
 ( 4, 4 ),
 ( 0.004897086451132915900, 0.006207842442394262600 ),
 .UNSPECIFIED. ) ;
#105 = CARTESIAN_POINT ( 'NONE',  ( 0.3391818500337396800, 5.577675959475028500, 5.688542370579763300 ) ) ;
#106 = EDGE_CURVE ( 'NONE', #129, #617, #150, .T. ) ;
#107 = FACE_OUTER_BOUND ( 'NONE', #497, .T. ) ;
#108 = CONICAL_SURFACE ( 'NONE', #385, 6.060738440128182500, 0.7853981633974439500 ) ;
#109 = DIRECTION ( 'NONE',  ( 0.8660254037844387100, -0.4999999999999999400, 0.0000000000000000000 ) ) ;
#110 = VERTEX_POINT ( 'NONE', #490 ) ;
#111 = EDGE_CURVE ( 'NONE', #286, #35, #811, .T. ) ;
#112 = EDGE_CURVE ( 'NONE', #255, #160, #859, .T. ) ;
#113 = EDGE_LOOP ( 'NONE', ( #450, #835 ) ) ;
#114 = VERTEX_POINT ( 'NONE', #217 ) ;
#115 = PLANE ( 'NONE',  #598 ) ;
#116 = ORIENTED_EDGE ( 'NONE', *, *, #111, .T. ) ;
#117 = EDGE_CURVE ( 'NONE', #877, #261, #387, .T. ) ;
#118 = EDGE_CURVE ( 'NONE', #472, #586, #602, .T. ) ;
#119 = ADVANCED_FACE ( 'NONE', ( #660 ), #460, .T. ) ;
#120 = ORIENTED_EDGE ( 'NONE', *, *, #616, .T. ) ;
#121 = PLANE ( 'NONE',  #894 ) ;
#122 = CARTESIAN_POINT ( 'NONE',  ( 0.0000000000000000000, 0.0000000000000000000, 0.5000000000000038900 ) ) ;
#123 = AXIS2_PLACEMENT_3D ( 'NONE', #535, #631, #716 ) ;
#124 = CARTESIAN_POINT ( 'NONE',  ( 4.999999999999997300, -2.886751345948143300, 0.4999999999999782400 ) ) ;
#125 = EDGE_CURVE ( 'NONE', #335, #472, #23, .T. ) ;
#126 = EDGE_LOOP ( 'NONE', ( #92, #847, #396 ) ) ;
#127 = CARTESIAN_POINT ( 'NONE',  ( -5.000000000000004400, 2.886751345948149100, 5.500000000000029300 ) ) ;
#128 = DIRECTION ( 'NONE',  ( -6.009258394948631200E-016, 1.000000000000000000, 0.0000000000000000000 ) ) ;
#129 = VERTEX_POINT ( 'NONE', #527 ) ;
#130 = CIRCLE ( 'NONE', #180, 5.273502691896288400 ) ;
#131 = CARTESIAN_POINT ( 'NONE',  ( 0.0000000000000000000, 0.0000000000000000000, 0.7872357482319007900 ) ) ;
#132 = FACE_BOUND ( 'NONE', #113, .T. ) ;
#133 = APPROVAL ( #233, 'UNSPECIFIED' ) ;
#134 = CARTESIAN_POINT ( 'NONE',  ( -5.000000000000004400, 2.886751345948120700, 6.000000000000000000 ) ) ;
#135 = FACE_OUTER_BOUND ( 'NONE', #453, .T. ) ;
#136 = ORIENTED_EDGE ( 'NONE', *, *, #118, .T. ) ;
#137 = ORIENTED_EDGE ( 'NONE', *, *, #820, .F. ) ;
#138 = CARTESIAN_POINT ( 'NONE',  ( 3.951679365796082300, 3.491999546302788200, 1.707532272126318500E-016 ) ) ;
#139 = ORIENTED_EDGE ( 'NONE', *, *, #537, .T. ) ;
#140 = PLANE ( 'NONE',  #753 ) ;
#141 = FACE_OUTER_BOUND ( 'NONE', #72, .T. ) ;
#142 = DATE_AND_TIME ( #727, #421 ) ;
#143 = VERTEX_POINT ( 'NONE', #627 ) ;
#144 = DIRECTION ( 'NONE',  ( -0.8660254037844388200, -0.4999999999999996100, 0.0000000000000000000 ) ) ;
#145 = CARTESIAN_POINT ( 'NONE',  ( 0.0000000000000000000, 0.0000000000000000000, 5.500000000000001800 ) ) ;
#146 = AXIS2_PLACEMENT_3D ( 'NONE', #383, #584, #663 ) ;
#147 = VERTEX_POINT ( 'NONE', #711 ) ;
#148 = CARTESIAN_POINT ( 'NONE',  ( -0.6891510546993062600, -5.375621144953312200, 5.857000109542590300 ) ) ;
#149 = ORIENTED_EDGE ( 'NONE', *, *, #620, .F. ) ;
#150 = B_SPLINE_CURVE_WITH_KNOTS ( 'NONE', 3,
 ( #738, #838, #4, #105, #199, #289 ),
 .UNSPECIFIED., .F., .F.,
 ( 4, 2, 4 ),
 ( 0.009612507750627257600, 0.01026677219241849300, 0.01092103663420972800 ),
 .UNSPECIFIED. ) ;
#151 = CARTESIAN_POINT ( 'NONE',  ( 1.048320634203968400, -5.168254491541567600, 0.0000000000000000000 ) ) ;
#152 = ORIENTED_EDGE ( 'NONE', *, *, #544, .F. ) ;
#153 = EDGE_LOOP ( 'NONE', ( #85, #298, #545, #306 ) ) ;
#154 = DIRECTION ( 'NONE',  ( 1.000000000000000000, 0.0000000000000000000, 0.0000000000000000000 ) ) ;
#155 = AXIS2_PLACEMENT_3D ( 'NONE', #733, #832, #1 ) ;
#156 = CC_DESIGN_APPROVAL ( #133, ( #695 ) ) ;
#157 = ORIENTED_EDGE ( 'NONE', *, *, #172, .F. ) ;
#158 = DIRECTION ( 'NONE',  ( 0.4999999999999998900, 0.8660254037844387100, -0.0000000000000000000 ) ) ;
#159 = CARTESIAN_POINT ( 'NONE',  ( 4.999999999999997300, -2.886751345948170800, 5.500000000000024000 ) ) ;
#160 = VERTEX_POINT ( 'NONE', #436 ) ;
#161 = PERSON ( 'UNSPECIFIED', 'UNSPECIFIED', 'UNSPECIFIED', ('UNSPECIFIED'), ('UNSPECIFIED'), ('UNSPECIFIED') ) ;
#162 = CARTESIAN_POINT ( 'NONE',  ( -2.810791057955210500E-015, -5.773502691896268900, 6.000000000000000000 ) ) ;
#163 = ORIENTED_EDGE ( 'NONE', *, *, #739, .T. ) ;
#164 = DIRECTION ( 'NONE',  ( 1.000000000000000000, 0.0000000000000000000, 0.0000000000000000000 ) ) ;
#165 = LINE ( 'NONE', #905, #391 ) ;
#166 = CARTESIAN_POINT ( 'NONE',  ( 0.0000000000000000000, 0.0000000000000000000, 5.212764251768099700 ) ) ;
#167 = CIRCLE ( 'NONE', #155, 3.500000000000001800 ) ;
#168 = ORIENTED_EDGE ( 'NONE', *, *, #404, .T. ) ;
#169 = DIRECTION ( 'NONE',  ( -0.0000000000000000000, -0.0000000000000000000, -1.000000000000000000 ) ) ;
#170 = B_SPLINE_CURVE_WITH_KNOTS ( 'NONE', 3,
 ( #787, #547, #502, #351, #449, #257 ),
 .UNSPECIFIED., .F., .F.,
 ( 4, 2, 4 ),
 ( 0.009612507750627240200, 0.01026677219241848400, 0.01092103663420972800 ),
 .UNSPECIFIED. ) ;
#171 = CARTESIAN_POINT ( 'NONE',  ( 3.951679365796082300, 3.491999546302788200, 6.000000000000000000 ) ) ;
#172 = EDGE_CURVE ( 'NONE', #224, #714, #800, .T. ) ;
#173 = AXIS2_PLACEMENT_3D ( 'NONE', #706, #619, #520 ) ;
#174 = FACE_OUTER_BOUND ( 'NONE', #783, .T. ) ;
#175 = CIRCLE ( 'NONE', #679, 5.273502691896288400 ) ;
#176 = CARTESIAN_POINT ( 'NONE',  ( -5.000000000000004400, -2.886751345948139800, 0.4999999999999823500 ) ) ;
#177 = CARTESIAN_POINT ( 'NONE',  ( -5.000000000000004400, 2.496223106883649600, 0.3047358804677362500 ) ) ;
#178 = ADVANCED_FACE ( 'NONE', ( #107 ), #764, .T. ) ;
#179 = CONICAL_SURFACE ( 'NONE', #688, 6.060738440128182500, 0.7853981633974439500 ) ;
#180 = AXIS2_PLACEMENT_3D ( 'NONE', #569, #275, #746 ) ;
#181 = CLOSED_SHELL ( 'NONE', ( #827, #761, #678, #465, #558, #189, #745, #754, #626, #897, #893, #37, #669, #392, #552, #393, #40, #557, #687, #803, #178, #814, #119, #818, #550, #50 ) ) ;
#182 = ORIENTED_EDGE ( 'NONE', *, *, #408, .T. ) ;
#183 = CARTESIAN_POINT ( 'NONE',  ( -3.951679365796374500, 3.491999546302623900, -1.928147442696733700E-013 ) ) ;
#184 = CARTESIAN_POINT ( 'NONE',  ( 3.500000000000001800, 0.0000000000000000000, 6.000000000000000000 ) ) ;
#185 = EDGE_CURVE ( 'NONE', #573, #532, #246, .T. ) ;
#186 = CARTESIAN_POINT ( 'NONE',  ( 3.500000000000003100, 4.286263797015740000E-016, 0.0000000000000000000 ) ) ;
#187 = EDGE_CURVE ( 'NONE', #346, #553, #167, .T. ) ;
#188 = CALENDAR_DATE ( 2014, 11, 6 ) ;
#189 = ADVANCED_FACE ( 'NONE', ( #6 ), #96, .F. ) ;
#190 = ORIENTED_EDGE ( 'NONE', *, *, #629, .T. ) ;
#191 = CARTESIAN_POINT ( 'NONE',  ( -0.1680977496018396800, 5.676451410913452700, 0.4029487190171381400 ) ) ;
#192 = CARTESIAN_POINT ( 'NONE',  ( -0.3387287364355833800, 5.577937564732899000, 5.695565127163386700 ) ) ;
#193 = CARTESIAN_POINT ( 'NONE',  ( -5.000000000000004400, 2.886751345948120700, 6.000000000000000000 ) ) ;
#194 = EDGE_CURVE ( 'NONE', #491, #656, #315, .T. ) ;
#195 = EDGE_CURVE ( 'NONE', #255, #702, #885, .T. ) ;
#196 = ORIENTED_EDGE ( 'NONE', *, *, #249, .T. ) ;
#197 = LINE ( 'NONE', #858, #612 ) ;
#198 = AXIS2_PLACEMENT_3D ( 'NONE', #193, #285, #378 ) ;
#199 = CARTESIAN_POINT ( 'NONE',  ( 0.1680977496018413500, 5.676451410913452700, 5.597051280982862300 ) ) ;
#200 = CONICAL_SURFACE ( 'NONE', #862, 6.060738440128182500, 0.7853981633974439500 ) ;
#201 = CARTESIAN_POINT ( 'NONE',  ( -5.000000000000004400, 1.676254945238747400, 0.0000000000000000000 ) ) ;
#202 = FACE_OUTER_BOUND ( 'NONE', #126, .T. ) ;
#203 = CC_DESIGN_DATE_AND_TIME_ASSIGNMENT ( #327, #522, ( #695 ) ) ;
#204 = ORIENTED_EDGE ( 'NONE', *, *, #539, .T. ) ;
#205 = ORIENTED_EDGE ( 'NONE', *, *, #328, .F. ) ;
#206 = DIRECTION ( 'NONE',  ( -0.4999999999999996100, 0.8660254037844388200, 0.0000000000000000000 ) ) ;
#207 = EDGE_LOOP ( 'NONE', ( #918, #637, #375, #561, #401, #251, #523, #725, #910, #674, #516, #898 ) ) ;
#208 = AXIS2_PLACEMENT_3D ( 'NONE', #737, #278, #164 ) ;
#209 = DIRECTION ( 'NONE',  ( -0.8660254037844392600, -0.4999999999999990000, 0.0000000000000000000 ) ) ;
#210 = DIRECTION ( 'NONE',  ( -0.8660254037844392600, -0.4999999999999990000, 0.0000000000000000000 ) ) ;
#211 = EDGE_LOOP ( 'NONE', ( #220, #355, #369 ) ) ;
#212 = CARTESIAN_POINT ( 'NONE',  ( -5.000000000000004400, -2.886751345948139800, 0.0000000000000000000 ) ) ;
#213 = DIRECTION ( 'NONE',  ( -0.7071067811865465700, 0.0000000000000000000, -0.7071067811865484600 ) ) ;
#214 = CARTESIAN_POINT ( 'NONE',  ( 4.999999999999994700, -1.676254945238773600, 6.000000000000000000 ) ) ;
#215 = ORIENTED_EDGE ( 'NONE', *, *, #195, .F. ) ;
#216 = CARTESIAN_POINT ( 'NONE',  ( -3.500000000000003100, 0.0000000000000000000, 0.0000000000000000000 ) ) ;
#217 = CARTESIAN_POINT ( 'NONE',  ( -3.072760745196433200E-015, -5.773502691896268900, 5.500000000000015100 ) ) ;
#218 = AXIS2_PLACEMENT_3D ( 'NONE', #700, #219, #718 ) ;
#219 = DIRECTION ( 'NONE',  ( 0.0000000000000000000, 0.0000000000000000000, -1.000000000000000000 ) ) ;
#220 = ORIENTED_EDGE ( 'NONE', *, *, #26, .T. ) ;
#221 = CARTESIAN_POINT ( 'NONE',  ( -1.048320634203973300, -5.168254491541567600, 6.000000000000000000 ) ) ;
#222 = CARTESIAN_POINT ( 'NONE',  ( 4.999999999999993800, 2.886751345948120700, 5.500000000000036400 ) ) ;
#223 = AXIS2_PLACEMENT_3D ( 'NONE', #831, #731, #643 ) ;
#224 = VERTEX_POINT ( 'NONE', #214 ) ;
#225 = ORIENTED_EDGE ( 'NONE', *, *, #824, .T. ) ;
#226 = CARTESIAN_POINT ( 'NONE',  ( 0.0000000000000000000, 0.0000000000000000000, 6.000000000000000000 ) ) ;
#227 = FACE_OUTER_BOUND ( 'NONE', #470, .T. ) ;
#228 = ORIENTED_EDGE ( 'NONE', *, *, #99, .F. ) ;
#229 = CARTESIAN_POINT ( 'NONE',  ( 0.0000000000000000000, 0.0000000000000000000, 6.000000000000000000 ) ) ;
#230 = DIRECTION ( 'NONE',  ( -0.0000000000000000000, -0.0000000000000000000, -1.000000000000000000 ) ) ;
#231 = B_SPLINE_CURVE_WITH_KNOTS ( 'NONE', 3,
 ( #48, #779, #600, #683, #191, #750 ),
 .UNSPECIFIED., .F., .F.,
 ( 4, 2, 4 ),
 ( 0.009612507750627278400, 0.01026677219241851600, 0.01092103663420975100 ),
 .UNSPECIFIED. ) ;
#232 = CARTESIAN_POINT ( 'NONE',  ( -3.000000000000000400, 3.673940397442060400E-016, 5.500000000000001800 ) ) ;
#233 = APPROVAL_STATUS ( 'not_yet_approved' ) ;
#234 = VECTOR ( 'NONE', #420, 1000.000000000000000 ) ;
#235 = VERTEX_POINT ( 'NONE', #302 ) ;
#236 = DIRECTION ( 'NONE',  ( 1.000000000000000000, 0.0000000000000000000, 0.0000000000000000000 ) ) ;
#237 = DIRECTION ( 'NONE',  ( 0.0000000000000000000, 0.0000000000000000000, 1.000000000000000000 ) ) ;
#238 = CARTESIAN_POINT ( 'NONE',  ( 0.0000000000000000000, 0.0000000000000000000, 0.0000000000000000000 ) ) ;
#239 = AXIS2_PLACEMENT_3D ( 'NONE', #131, #313, #418 ) ;
#240 = CIRCLE ( 'NONE', #371, 5.273502691896288400 ) ;
#241 = EDGE_CURVE ( 'NONE', #586, #491, #792, .T. ) ;
#242 = VERTEX_POINT ( 'NONE', #720 ) ;
#243 = CIRCLE ( 'NONE', #367, 3.000000000000000400 ) ;
#244 = CARTESIAN_POINT ( 'NONE',  ( -0.3391818500337613300, -5.577675959475042700, 5.688542370579750000 ) ) ;
#245 = DIRECTION ( 'NONE',  ( 1.000000000000000000, 0.0000000000000000000, 0.0000000000000000000 ) ) ;
#246 = CIRCLE ( 'NONE', #373, 5.273502691896288400 ) ;
#247 = VECTOR ( 'NONE', #213, 1000.000000000000000 ) ;
#248 = FACE_BOUND ( 'NONE', #821, .T. ) ;
#249 = EDGE_CURVE ( 'NONE', #35, #426, #464, .T. ) ;
#250 = ORIENTED_EDGE ( 'NONE', *, *, #902, .T. ) ;
#251 = ORIENTED_EDGE ( 'NONE', *, *, #685, .F. ) ;
#252 = EDGE_CURVE ( 'NONE', #242, #424, #849, .T. ) ;
#253 = VECTOR ( 'NONE', #326, 1000.000000000000100 ) ;
#254 = EDGE_CURVE ( 'NONE', #771, #64, #922, .T. ) ;
#255 = VERTEX_POINT ( 'NONE', #549 ) ;
#256 = CARTESIAN_POINT ( 'NONE',  ( -3.000000000000000400, 0.0000000000000000000, 6.000000000000000000 ) ) ;
#257 = CARTESIAN_POINT ( 'NONE',  ( -5.000000000000004400, 2.886751345948149100, 5.500000000000029300 ) ) ;
#258 = EDGE_CURVE ( 'NONE', #235, #577, #88, .T. ) ;
#259 = VERTEX_POINT ( 'NONE', #431 ) ;
#260 = EDGE_CURVE ( 'NONE', #335, #553, #521, .T. ) ;
#261 = VERTEX_POINT ( 'NONE', #320 ) ;
#262 = DIRECTION ( 'NONE',  ( 0.0000000000000000000, 0.0000000000000000000, -1.000000000000000000 ) ) ;
#263 = CARTESIAN_POINT ( 'NONE',  ( -5.000000000000004400, -2.886751345948139800, 5.500000000000016900 ) ) ;
#264 = DIRECTION ( 'NONE',  ( 0.0000000000000000000, 0.0000000000000000000, -1.000000000000000000 ) ) ;
#265 = APPROVAL_STATUS ( 'not_yet_approved' ) ;
#266 = EDGE_CURVE ( 'NONE', #714, #771, #305, .T. ) ;
#267 = VECTOR ( 'NONE', #230, 1000.000000000000000 ) ;
#268 = ORIENTED_EDGE ( 'NONE', *, *, #419, .F. ) ;
#269 = DIRECTION ( 'NONE',  ( 1.000000000000000000, 0.0000000000000000000, 0.0000000000000000000 ) ) ;
#270 = CARTESIAN_POINT ( 'NONE',  ( -2.957044141037850300E-015, -5.773502691896268900, 0.4999999999999850700 ) ) ;
#271 = APPROVAL ( #304, 'UNSPECIFIED' ) ;
#272 = VECTOR ( 'NONE', #209, 1000.000000000000000 ) ;
#273 = AXIS2_PLACEMENT_3D ( 'NONE', #500, #323, #429 ) ;
#274 = CARTESIAN_POINT ( 'NONE',  ( 3.951679365796039600, -3.491999546302836600, 6.000000000000000000 ) ) ;
#275 = DIRECTION ( 'NONE',  ( 0.0000000000000000000, 0.0000000000000000000, 1.000000000000000000 ) ) ;
#276 = CARTESIAN_POINT ( 'NONE',  ( 0.8680506665480043300, -5.272333405894543500, 0.06616581239158154900 ) ) ;
#277 = ORIENTED_EDGE ( 'NONE', *, *, #837, .T. ) ;
#278 = DIRECTION ( 'NONE',  ( 0.0000000000000000000, 0.0000000000000000000, 1.000000000000000000 ) ) ;
#279 = ORIENTED_EDGE ( 'NONE', *, *, #537, .F. ) ;
#280 = ORIENTED_EDGE ( 'NONE', *, *, #824, .F. ) ;
#281 = CARTESIAN_POINT ( 'NONE',  ( 4.999999999999993800, 2.886751345948120700, 6.000000000000000000 ) ) ;
#282 = ORIENTED_EDGE ( 'NONE', *, *, #474, .F. ) ;
#283 = CARTESIAN_POINT ( 'NONE',  ( -5.000000000000004400, 2.886751345948149100, 5.500000000000029300 ) ) ;
#284 = CARTESIAN_POINT ( 'NONE',  ( 6.869282575713077200E-016, 5.773502691896244900, 5.500000000000040000 ) ) ;
#285 = DIRECTION ( 'NONE',  ( 1.000000000000000000, 0.0000000000000000000, -0.0000000000000000000 ) ) ;
#286 = VERTEX_POINT ( 'NONE', #345 ) ;
#287 = CARTESIAN_POINT ( 'NONE',  ( 3.000000000000000400, 3.673940397442060400E-016, 0.5000000000000038900 ) ) ;
#288 = AXIS2_PLACEMENT_3D ( 'NONE', #238, #908, #628 ) ;
#289 = CARTESIAN_POINT ( 'NONE',  ( 6.869282575713077200E-016, 5.773502691896244900, 5.500000000000040000 ) ) ;
#290 = DIRECTION ( 'NONE',  ( -0.0000000000000000000, -0.0000000000000000000, -1.000000000000000000 ) ) ;
#291 = CARTESIAN_POINT ( 'NONE',  ( 4.999999999999997300, -2.886751345948143300, 0.4999999999999782400 ) ) ;
#292 = VECTOR ( 'NONE', #911, 1000.000000000000100 ) ;
#293 = ORIENTED_EDGE ( 'NONE', *, *, #406, .F. ) ;
#294 = ORIENTED_EDGE ( 'NONE', *, *, #185, .T. ) ;
#295 = DIRECTION ( 'NONE',  ( -0.0000000000000000000, -0.0000000000000000000, -1.000000000000000000 ) ) ;
#296 = AXIS2_PLACEMENT_3D ( 'NONE', #872, #554, #307 ) ;
#297 = DIRECTION ( 'NONE',  ( 1.000000000000000000, 0.0000000000000000000, 0.0000000000000000000 ) ) ;
#298 = ORIENTED_EDGE ( 'NONE', *, *, #260, .T. ) ;
#299 = DIRECTION ( 'NONE',  ( -1.000000000000000000, 0.0000000000000000000, 0.0000000000000000000 ) ) ;
#300 = B_SPLINE_CURVE_WITH_KNOTS ( 'NONE', 3,
 ( #595, #853, #505, #395, #830, #356 ),
 .UNSPECIFIED., .F., .F.,
 ( 4, 2, 4 ),
 ( 0.009612507750627248900, 0.01026677219241848800, 0.01092103663420972700 ),
 .UNSPECIFIED. ) ;
#301 = CARTESIAN_POINT ( 'NONE',  ( -3.500000000000003100, 0.0000000000000000000, 0.0000000000000000000 ) ) ;
#302 = CARTESIAN_POINT ( 'NONE',  ( 1.048320634203968400, -5.168254491541567600, 0.0000000000000000000 ) ) ;
#303 = APPROVAL_PERSON_ORGANIZATION ( #707, #271, #597 ) ;
#304 = APPROVAL_STATUS ( 'not_yet_approved' ) ;
#305 = B_SPLINE_CURVE_WITH_KNOTS ( 'NONE', 3,
 ( #517, #81, #651, #222 ),
 .UNSPECIFIED., .F., .F.,
 ( 4, 4 ),
 ( 0.008907927803310926000, 0.01021840846846770200 ),
 .UNSPECIFIED. ) ;
#306 = ORIENTED_EDGE ( 'NONE', *, *, #629, .F. ) ;
#307 = DIRECTION ( 'NONE',  ( 1.000000000000000000, 0.0000000000000000000, 0.0000000000000000000 ) ) ;
#308 = DIRECTION ( 'NONE',  ( 0.0000000000000000000, 0.0000000000000000000, 1.000000000000000000 ) ) ;
#309 = B_SPLINE_CURVE_WITH_KNOTS ( 'NONE', 3,
 ( #542, #639, #57, #921 ),
 .UNSPECIFIED., .F., .F.,
 ( 4, 4 ),
 ( 0.004897086451132918500, 0.006207842442394524500 ),
 .UNSPECIFIED. ) ;
#310 = ORIENTED_EDGE ( 'NONE', *, *, #419, .T. ) ;
#311 = LINE ( 'NONE', #417, #82 ) ;
#312 = CIRCLE ( 'NONE', #173, 5.273502691896288400 ) ;
#313 = DIRECTION ( 'NONE',  ( -0.0000000000000000000, -0.0000000000000000000, 1.000000000000000000 ) ) ;
#314 = CARTESIAN_POINT ( 'NONE',  ( 0.0000000000000000000, 0.0000000000000000000, 0.0000000000000000000 ) ) ;
#315 = CIRCLE ( 'NONE', #347, 3.500000000000003100 ) ;
#316 = FACE_OUTER_BOUND ( 'NONE', #207, .T. ) ;
#317 = EDGE_CURVE ( 'NONE', #259, #235, #130, .T. ) ;
#318 = ORIENTED_EDGE ( 'NONE', *, *, #330, .T. ) ;
#319 = VERTEX_POINT ( 'NONE', #138 ) ;
#320 = CARTESIAN_POINT ( 'NONE',  ( -1.048320634203908200, 5.168254491541580900, 0.0000000000000000000 ) ) ;
#321 = EDGE_CURVE ( 'NONE', #424, #762, #743, .T. ) ;
#322 = ORIENTED_EDGE ( 'NONE', *, *, #33, .T. ) ;
#323 = DIRECTION ( 'NONE',  ( 0.0000000000000000000, 0.0000000000000000000, 1.000000000000000000 ) ) ;
#324 = CARTESIAN_POINT ( 'NONE',  ( 4.999999999999997300, -2.886751345948143300, 6.000000000000000000 ) ) ;
#325 = EDGE_CURVE ( 'NONE', #553, #346, #609, .T. ) ;
#326 = DIRECTION ( 'NONE',  ( 0.8660254037844388200, 0.4999999999999996100, 0.0000000000000000000 ) ) ;
#327 = DATE_AND_TIME ( #507, #58 ) ;
#328 = EDGE_CURVE ( 'NONE', #762, #573, #844, .T. ) ;
#329 = LINE ( 'NONE', #281, #570 ) ;
#330 = EDGE_CURVE ( 'NONE', #114, #866, #309, .T. ) ;
#331 = ORIENTED_EDGE ( 'NONE', *, *, #481, .T. ) ;
#332 = CARTESIAN_POINT ( 'NONE',  ( -5.000000000000004400, -2.886751345948139800, 0.4999999999999823500 ) ) ;
#333 = DIRECTION ( 'NONE',  ( 1.000000000000000000, 0.0000000000000000000, 0.0000000000000000000 ) ) ;
#334 = AXIS2_PLACEMENT_3D ( 'NONE', #145, #237, #333 ) ;
#335 = VERTEX_POINT ( 'NONE', #370 ) ;
#336 = CARTESIAN_POINT ( 'NONE',  ( 0.0000000000000000000, 0.0000000000000000000, 5.500000000000001800 ) ) ;
#337 = CC_DESIGN_PERSON_AND_ORGANIZATION_ASSIGNMENT ( #645, #802, ( #360 ) ) ;
#338 = CARTESIAN_POINT ( 'NONE',  ( -0.1680977496018529200, -5.676451410913470500, 5.597051280982844500 ) ) ;
#339 = CIRCLE ( 'NONE', #223, 3.000000000000000400 ) ;
#340 = DIRECTION ( 'NONE',  ( 1.000000000000000000, 0.0000000000000000000, 0.0000000000000000000 ) ) ;
#341 = CC_DESIGN_DATE_AND_TIME_ASSIGNMENT ( #412, #582, ( #571 ) ) ;
#342 = VECTOR ( 'NONE', #75, 1000.000000000000000 ) ;
#343 = ORIENTED_EDGE ( 'NONE', *, *, #752, .F. ) ;
#344 = ORIENTED_EDGE ( 'NONE', *, *, #249, .F. ) ;
#345 = CARTESIAN_POINT ( 'NONE',  ( -3.951679365796374500, 3.491999546302623900, -1.928147442696733700E-013 ) ) ;
#346 = VERTEX_POINT ( 'NONE', #184 ) ;
#347 = AXIS2_PLACEMENT_3D ( 'NONE', #482, #581, #658 ) ;
#348 = CC_DESIGN_APPROVAL ( #271, ( #441 ) ) ;
#349 = ORIENTED_EDGE ( 'NONE', *, *, #671, .T. ) ;
#350 = PLANE ( 'NONE',  #63 ) ;
#351 = CARTESIAN_POINT ( 'NONE',  ( -4.660818149966250000, 3.082578078369342400, 5.688542370579758000 ) ) ;
#352 = ORIENTED_EDGE ( 'NONE', *, *, #406, .T. ) ;
#353 = CARTESIAN_POINT ( 'NONE',  ( 4.999999999999994700, 2.090961916318075300, 0.1318202818337247100 ) ) ;
#354 = AXIS2_PLACEMENT_3D ( 'NONE', #166, #264, #358 ) ;
#355 = ORIENTED_EDGE ( 'NONE', *, *, #747, .T. ) ;
#356 = CARTESIAN_POINT ( 'NONE',  ( 4.999999999999993800, 2.886751345948120700, 0.4999999999999642500 ) ) ;
#357 = CARTESIAN_POINT ( 'NONE',  ( -5.000000000000004400, -2.496223106883662000, 5.695264119532257800 ) ) ;
#358 = DIRECTION ( 'NONE',  ( 1.000000000000000000, 0.0000000000000000000, 0.0000000000000000000 ) ) ;
#359 = SHAPE_DEFINITION_REPRESENTATION ( #69, #89 ) ;
#360 = PRODUCT ( 'nut', 'nut', '', ( #458 ) ) ;
#361 = EDGE_LOOP ( 'NONE', ( #703, #331, #719 ) ) ;
#362 = LINE ( 'NONE', #256, #672 ) ;
#363 = COORDINATED_UNIVERSAL_TIME_OFFSET ( 5, 30, .AHEAD. ) ;
#364 = CARTESIAN_POINT ( 'NONE',  ( 4.999999999999993800, 2.886751345948120700, 0.4999999999999642500 ) ) ;
#365 = APPROVAL_PERSON_ORGANIZATION ( #874, #917, #734 ) ;
#366 = CARTESIAN_POINT ( 'NONE',  ( 0.0000000000000000000, 0.0000000000000000000, 0.0000000000000000000 ) ) ;
#367 = AXIS2_PLACEMENT_3D ( 'NONE', #122, #854, #758 ) ;
#368 = DIRECTION ( 'NONE',  ( -0.7071067811865493500, 8.659560562354956300E-017, 0.7071067811865456900 ) ) ;
#369 = ORIENTED_EDGE ( 'NONE', *, *, #476, .T. ) ;
#370 = CARTESIAN_POINT ( 'NONE',  ( -3.000000000000000400, 0.0000000000000000000, 5.500000000000001800 ) ) ;
#371 = AXIS2_PLACEMENT_3D ( 'NONE', #860, #13, #340 ) ;
#372 = EDGE_LOOP ( 'NONE', ( #282, #689, #791, #423 ) ) ;
#373 = AXIS2_PLACEMENT_3D ( 'NONE', #456, #556, #644 ) ;
#374 = DIRECTION ( 'NONE',  ( 1.000000000000000000, 0.0000000000000000000, 0.0000000000000000000 ) ) ;
#375 = ORIENTED_EDGE ( 'NONE', *, *, #399, .F. ) ;
#376 = PLANE ( 'NONE',  #475 ) ;
#377 = CARTESIAN_POINT ( 'NONE',  ( -5.000000000000004400, -1.676254945238747400, 1.294017786939608700E-016 ) ) ;
#378 = DIRECTION ( 'NONE',  ( -0.0000000000000000000, 0.0000000000000000000, -1.000000000000000000 ) ) ;
#379 = COORDINATED_UNIVERSAL_TIME_OFFSET ( 5, 30, .AHEAD. ) ;
#380 = ORIENTED_EDGE ( 'NONE', *, *, #543, .T. ) ;
#381 = DIRECTION ( 'NONE',  ( 6.009258394948631200E-016, -1.000000000000000000, 0.0000000000000000000 ) ) ;
#382 = B_SPLINE_CURVE_WITH_KNOTS ( 'NONE', 3,
 ( #657, #580, #480, #377 ),
 .UNSPECIFIED., .F., .F.,
 ( 4, 4 ),
 ( 0.004204090619840198900, 0.005507968881931606100 ),
 .UNSPECIFIED. ) ;
#383 = CARTESIAN_POINT ( 'NONE',  ( 0.0000000000000000000, 0.0000000000000000000, 0.0000000000000000000 ) ) ;
#384 = CONICAL_SURFACE ( 'NONE', #9, 6.060738440128182500, 0.7853981633974439500 ) ;
#385 = AXIS2_PLACEMENT_3D ( 'NONE', #87, #471, #888 ) ;
#386 = DIRECTION ( 'NONE',  ( -1.000000000000000000, 0.0000000000000000000, 0.0000000000000000000 ) ) ;
#387 = CIRCLE ( 'NONE', #652, 5.273502691896288400 ) ;
#388 = DIRECTION ( 'NONE',  ( -1.000000000000000000, 0.0000000000000000000, 0.0000000000000000000 ) ) ;
#389 = DIRECTION ( 'NONE',  ( -0.0000000000000000000, -0.0000000000000000000, -1.000000000000000000 ) ) ;
#390 = FACE_OUTER_BOUND ( 'NONE', #518, .T. ) ;
#391 = VECTOR ( 'NONE', #799, 1000.000000000000000 ) ;
#392 = ADVANCED_FACE ( 'NONE', ( #202 ), #108, .T. ) ;
#393 = ADVANCED_FACE ( 'NONE', ( #636 ), #28, .T. ) ;
#394 = ORIENTED_EDGE ( 'NONE', *, *, #772, .F. ) ;
#395 = CARTESIAN_POINT ( 'NONE',  ( 4.660818149966253500, 3.082578078369335700, 0.3114576294202395200 ) ) ;
#396 = ORIENTED_EDGE ( 'NONE', *, *, #812, .T. ) ;
#397 = EDGE_CURVE ( 'NONE', #702, #577, #104, .T. ) ;
#398 = CC_DESIGN_SECURITY_CLASSIFICATION ( #695, ( #441 ) ) ;
#399 = EDGE_CURVE ( 'NONE', #577, #255, #808, .T. ) ;
#400 =( LENGTH_UNIT ( ) NAMED_UNIT ( * ) SI_UNIT ( .MILLI., .METRE. ) );
#401 = ORIENTED_EDGE ( 'NONE', *, *, #317, .F. ) ;
#402 = CARTESIAN_POINT ( 'NONE',  ( 7.204740682582895900E-016, 5.773502691896244900, 6.000000000000000000 ) ) ;
#403 = LINE ( 'NONE', #301, #247 ) ;
#404 = EDGE_CURVE ( 'NONE', #424, #729, #170, .T. ) ;
#405 = ORIENTED_EDGE ( 'NONE', *, *, #185, .F. ) ;
#406 = EDGE_CURVE ( 'NONE', #661, #224, #664, .T. ) ;
#407 = FACE_OUTER_BOUND ( 'NONE', #633, .T. ) ;
#408 = EDGE_CURVE ( 'NONE', #14, #224, #312, .T. ) ;
#409 = ORIENTED_EDGE ( 'NONE', *, *, #325, .F. ) ;
#410 = CARTESIAN_POINT ( 'NONE',  ( 4.999999999999997300, -2.886751345948170800, 5.500000000000024000 ) ) ;
#411 = DIRECTION ( 'NONE',  ( 1.000000000000000000, 0.0000000000000000000, 0.0000000000000000000 ) ) ;
#412 = DATE_AND_TIME ( #514, #494 ) ;
#413 = VECTOR ( 'NONE', #368, 1000.000000000000000 ) ;
#414 = AXIS2_PLACEMENT_3D ( 'NONE', #229, #42, #299 ) ;
#415 = CARTESIAN_POINT ( 'NONE',  ( -2.957044141037850300E-015, -5.773502691896268900, 0.4999999999999850700 ) ) ;
#416 = ORIENTED_EDGE ( 'NONE', *, *, #321, .T. ) ;
#417 = CARTESIAN_POINT ( 'NONE',  ( -5.000000000000004400, -2.886751345948139800, 6.000000000000000000 ) ) ;
#418 = DIRECTION ( 'NONE',  ( 1.000000000000000000, 0.0000000000000000000, 0.0000000000000000000 ) ) ;
#419 = EDGE_CURVE ( 'NONE', #661, #702, #430, .T. ) ;
#420 = DIRECTION ( 'NONE',  ( 0.0000000000000000000, -1.000000000000000000, 0.0000000000000000000 ) ) ;
#421 = LOCAL_TIME ( 22, 14, 9.000000000000000000, #534 ) ;
#422 = ORIENTED_EDGE ( 'NONE', *, *, #820, .T. ) ;
#423 = ORIENTED_EDGE ( 'NONE', *, *, #469, .F. ) ;
#424 = VERTEX_POINT ( 'NONE', #43 ) ;
#425 = CARTESIAN_POINT ( 'NONE',  ( 4.999999999999993800, 2.886751345948120700, 6.000000000000000000 ) ) ;
#426 = VERTEX_POINT ( 'NONE', #873 ) ;
#427 = DIRECTION ( 'NONE',  ( 0.0000000000000000000, 0.0000000000000000000, 1.000000000000000000 ) ) ;
#428 = ORIENTED_EDGE ( 'NONE', *, *, #890, .T. ) ;
#429 = DIRECTION ( 'NONE',  ( 1.000000000000000000, 0.0000000000000000000, 0.0000000000000000000 ) ) ;
#430 = LINE ( 'NONE', #324, #267 ) ;
#431 = CARTESIAN_POINT ( 'NONE',  ( -1.048320634203673500, -5.168254491541739900, -1.937174206227583400E-013 ) ) ;
#432 = CALENDAR_DATE ( 2014, 11, 6 ) ;
#433 = CARTESIAN_POINT ( 'NONE',  ( 7.204740682582895900E-016, 5.773502691896244900, 0.0000000000000000000 ) ) ;
#434 = ORIENTED_EDGE ( 'NONE', *, *, #890, .F. ) ;
#435 = CARTESIAN_POINT ( 'NONE',  ( -5.000000000000004400, -2.886751345948139800, 5.500000000000016900 ) ) ;
#436 = CARTESIAN_POINT ( 'NONE',  ( 4.999999999999994700, 1.676254945238775600, -5.709484123382995200E-018 ) ) ;
#437 = APPLICATION_PROTOCOL_DEFINITION ( 'international standard', 'config_control_design', 1994, #788 ) ;
#438 = VERTEX_POINT ( 'NONE', #776 ) ;
#439 = CARTESIAN_POINT ( 'NONE',  ( -4.660818149966245500, -3.082578078369364100, 0.3114576294202491300 ) ) ;
#440 = CARTESIAN_POINT ( 'NONE',  ( -3.072760745196433200E-015, -5.773502691896268900, 5.500000000000015100 ) ) ;
#441 = PRODUCT_DEFINITION_FORMATION_WITH_SPECIFIED_SOURCE ( 'ANY', '', #360, .NOT_KNOWN. ) ;
#442 = AXIS2_PLACEMENT_3D ( 'NONE', #65, #666, #386 ) ;
#443 = ORIENTED_EDGE ( 'NONE', *, *, #99, .T. ) ;
#444 = ORIENTED_EDGE ( 'NONE', *, *, #902, .F. ) ;
#445 = CARTESIAN_POINT ( 'NONE',  ( -5.000000000000004400, 2.886751345948120700, 0.4999999999999736900 ) ) ;
#446 = DIRECTION ( 'NONE',  ( 1.000000000000000000, 0.0000000000000000000, -0.0000000000000000000 ) ) ;
#447 = ORIENTED_EDGE ( 'NONE', *, *, #46, .F. ) ;
#448 = CARTESIAN_POINT ( 'NONE',  ( -5.000000000000004400, 2.886751345948120700, 0.0000000000000000000 ) ) ;
#449 = CARTESIAN_POINT ( 'NONE',  ( -4.831902250398152400, 2.983802626930921200, 5.597051280982857900 ) ) ;
#450 = ORIENTED_EDGE ( 'NONE', *, *, #680, .T. ) ;
#451 = UNCERTAINTY_MEASURE_WITH_UNIT (LENGTH_MEASURE( 1.000000000000000100E-005 ), #400, 'distance_accuracy_value', 'NONE');
#452 = DIRECTION ( 'NONE',  ( 0.0000000000000000000, 0.0000000000000000000, -1.000000000000000000 ) ) ;
#453 = EDGE_LOOP ( 'NONE', ( #920, #152, #190, #409 ) ) ;
#454 = DIRECTION ( 'NONE',  ( 1.000000000000000000, 0.0000000000000000000, 0.0000000000000000000 ) ) ;
#455 = CARTESIAN_POINT ( 'NONE',  ( -5.000000000000004400, -2.094979359186478300, 5.866902719012491800 ) ) ;
#456 = CARTESIAN_POINT ( 'NONE',  ( 0.0000000000000000000, 0.0000000000000000000, 6.000000000000000000 ) ) ;
#457 = B_SPLINE_CURVE_WITH_KNOTS ( 'NONE', 3,
 ( #492, #587, #668, #766, #863, #30 ),
 .UNSPECIFIED., .F., .F.,
 ( 4, 2, 4 ),
 ( 0.009612507750627207300, 0.01026677219241846700, 0.01092103663420972700 ),
 .UNSPECIFIED. ) ;
#458 = MECHANICAL_CONTEXT ( 'NONE', #865, 'mechanical' ) ;
#459 = DIRECTION ( 'NONE',  ( -0.0000000000000000000, -0.0000000000000000000, -1.000000000000000000 ) ) ;
#460 = CONICAL_SURFACE ( 'NONE', #717, 6.060738440128182500, 0.7853981633974439500 ) ;
#461 = ORIENTED_EDGE ( 'NONE', *, *, #44, .F. ) ;
#462 = CARTESIAN_POINT ( 'NONE',  ( -0.3387287364355431900, -5.577937564732947000, 0.3044348728366617600 ) ) ;
#463 = VECTOR ( 'NONE', #781, 1000.000000000000000 ) ;
#464 = B_SPLINE_CURVE_WITH_KNOTS ( 'NONE', 3,
 ( #635, #498, #177, #445 ),
 .UNSPECIFIED., .F., .F.,
 ( 4, 4 ),
 ( 0.008907927803310879100, 0.01021840846846768800 ),
 .UNSPECIFIED. ) ;
#465 = ADVANCED_FACE ( 'NONE', ( #590 ), #140, .F. ) ;
#466 = DIRECTION ( 'NONE',  ( 0.0000000000000000000, 0.0000000000000000000, 1.000000000000000000 ) ) ;
#467 = AXIS2_PLACEMENT_3D ( 'NONE', #314, #511, #245 ) ;
#468 = DIRECTION ( 'NONE',  ( -0.0000000000000000000, -0.0000000000000000000, 1.000000000000000000 ) ) ;
#469 = EDGE_CURVE ( 'NONE', #143, #656, #403, .T. ) ;
#470 = EDGE_LOOP ( 'NONE', ( #891, #667, #903 ) ) ;
#471 = DIRECTION ( 'NONE',  ( -0.0000000000000000000, -0.0000000000000000000, 1.000000000000000000 ) ) ;
#472 = VERTEX_POINT ( 'NONE', #16 ) ;
#473 = AXIS2_PLACEMENT_3D ( 'NONE', #650, #290, #388 ) ;
#474 = EDGE_CURVE ( 'NONE', #586, #143, #243, .T. ) ;
#475 = AXIS2_PLACEMENT_3D ( 'NONE', #899, #158, #67 ) ;
#476 = EDGE_CURVE ( 'NONE', #10, #2, #382, .T. ) ;
#477 = DIRECTION ( 'NONE',  ( 0.0000000000000000000, 0.0000000000000000000, 1.000000000000000000 ) ) ;
#478 = EDGE_LOOP ( 'NONE', ( #541, #225, #434, #726, #591, #268, #682, #693 ) ) ;
#479 = LINE ( 'NONE', #496, #292 ) ;
#480 = CARTESIAN_POINT ( 'NONE',  ( -5.000000000000004400, -2.090961916318064600, 0.1318202818337283500 ) ) ;
#481 = EDGE_CURVE ( 'NONE', #617, #242, #806, .T. ) ;
#482 = CARTESIAN_POINT ( 'NONE',  ( 0.0000000000000000000, 0.0000000000000000000, 0.0000000000000000000 ) ) ;
#483 = PERSON_AND_ORGANIZATION ( #161, #564 ) ;
#484 = EDGE_CURVE ( 'NONE', #143, #586, #339, .T. ) ;
#485 = DESIGN_CONTEXT ( 'detailed design', #788, 'design' ) ;
#486 = CARTESIAN_POINT ( 'NONE',  ( 4.999999999999994700, 1.676254945238775600, -5.709484123382995200E-018 ) ) ;
#487 = EDGE_CURVE ( 'NONE', #573, #147, #19, .T. ) ;
#488 = EDGE_LOOP ( 'NONE', ( #499, #204, #344, #756, #76, #614, #41, #205 ) ) ;
#489 = CARTESIAN_POINT ( 'NONE',  ( 0.0000000000000000000, 0.0000000000000000000, 0.7872357482319007900 ) ) ;
#490 = CARTESIAN_POINT ( 'NONE',  ( -3.951679365796035600, -3.491999546302840600, 0.0000000000000000000 ) ) ;
#491 = VERTEX_POINT ( 'NONE', #74 ) ;
#492 = CARTESIAN_POINT ( 'NONE',  ( 3.951679365796039600, -3.491999546302836600, 6.000000000000000000 ) ) ;
#493 = CARTESIAN_POINT ( 'NONE',  ( 4.661271263564462000, -3.082316473111461200, 0.3044348728366587100 ) ) ;
#494 = LOCAL_TIME ( 22, 14, 9.000000000000000000, #363 ) ;
#495 = ORIENTED_EDGE ( 'NONE', *, *, #241, .F. ) ;
#496 = CARTESIAN_POINT ( 'NONE',  ( -2.810791057955210500E-015, -5.773502691896268900, 6.000000000000000000 ) ) ;
#497 = EDGE_LOOP ( 'NONE', ( #624, #349, #405 ) ) ;
#498 = CARTESIAN_POINT ( 'NONE',  ( -5.000000000000004400, 2.094979359186470700, 0.1330972809875054500 ) ) ;
#499 = ORIENTED_EDGE ( 'NONE', *, *, #616, .F. ) ;
#500 = CARTESIAN_POINT ( 'NONE',  ( 0.0000000000000000000, 0.0000000000000000000, 0.0000000000000000000 ) ) ;
#501 = DIRECTION ( 'NONE',  ( 0.8660254037844387100, -0.4999999999999998900, 0.0000000000000000000 ) ) ;
#502 = CARTESIAN_POINT ( 'NONE',  ( -4.310848945300722200, 3.284632892891065300, 5.857000109542593900 ) ) ;
#503 = SECURITY_CLASSIFICATION_LEVEL ( 'unclassified' ) ;
#504 = EDGE_LOOP ( 'NONE', ( #599, #137, #677 ) ) ;
#505 = CARTESIAN_POINT ( 'NONE',  ( 4.310848945300730200, 3.284632892891056000, 0.1429998904574073800 ) ) ;
#506 = CARTESIAN_POINT ( 'NONE',  ( 0.0000000000000000000, 0.0000000000000000000, 5.212764251768099700 ) ) ;
#507 = CALENDAR_DATE ( 2014, 11, 6 ) ;
#508 = ORIENTED_EDGE ( 'NONE', *, *, #397, .T. ) ;
#509 = DIRECTION ( 'NONE',  ( 0.8660254037844392600, 0.4999999999999989500, 0.0000000000000000000 ) ) ;
#510 = CARTESIAN_POINT ( 'NONE',  ( 7.513844010869493400E-016, 5.773502691896244900, 0.4999999999999606400 ) ) ;
#511 = DIRECTION ( 'NONE',  ( 0.0000000000000000000, 0.0000000000000000000, 1.000000000000000000 ) ) ;
#512 = CARTESIAN_POINT ( 'NONE',  ( 0.0000000000000000000, 0.0000000000000000000, 5.212764251768099700 ) ) ;
#513 = AXIS2_PLACEMENT_3D ( 'NONE', #755, #427, #896 ) ;
#514 = CALENDAR_DATE ( 2014, 11, 6 ) ;
#515 = EDGE_LOOP ( 'NONE', ( #723, #352, #646 ) ) ;
#516 = ORIENTED_EDGE ( 'NONE', *, *, #117, .F. ) ;
#517 = CARTESIAN_POINT ( 'NONE',  ( 4.999999999999992900, 1.676254945238779600, 6.000000000000000000 ) ) ;
#518 = EDGE_LOOP ( 'NONE', ( #293, #310, #215, #574, #641, #583, #60, #157 ) ) ;
#519 = CARTESIAN_POINT ( 'NONE',  ( 0.0000000000000000000, 0.0000000000000000000, 5.212764251768099700 ) ) ;
#520 = DIRECTION ( 'NONE',  ( 1.000000000000000000, 0.0000000000000000000, 0.0000000000000000000 ) ) ;
#521 = LINE ( 'NONE', #232, #413 ) ;
#522 = DATE_TIME_ROLE ( 'classification_date' ) ;
#523 = ORIENTED_EDGE ( 'NONE', *, *, #26, .F. ) ;
#524 = CARTESIAN_POINT ( 'NONE',  ( -4.310848945300703500, -3.284632892891096400, 0.1429998904574103500 ) ) ;
#525 = CARTESIAN_POINT ( 'NONE',  ( -4.661271263564476200, 3.082316473111434100, 0.3044348728366578800 ) ) ;
#526 = B_SPLINE_CURVE_WITH_KNOTS ( 'NONE', 3,
 ( #510, #608, #696, #785 ),
 .UNSPECIFIED., .F., .F.,
 ( 4, 4 ),
 ( 0.004897086451132913300, 0.006207842442394199300 ),
 .UNSPECIFIED. ) ;
#527 = CARTESIAN_POINT ( 'NONE',  ( 1.048320634203906600, 5.168254491541580900, 6.000000000000000000 ) ) ;
#528 = APPLICATION_PROTOCOL_DEFINITION ( 'international standard', 'config_control_design', 1994, #865 ) ;
#529 = EDGE_CURVE ( 'NONE', #319, #877, #165, .T. ) ;
#530 = B_SPLINE_CURVE_WITH_KNOTS ( 'NONE', 3,
 ( #735, #681, #353, #486 ),
 .UNSPECIFIED., .F., .F.,
 ( 4, 4 ),
 ( 0.004204090619840199700, 0.005507968881931554900 ),
 .UNSPECIFIED. ) ;
#531 = CONICAL_SURFACE ( 'NONE', #748, 6.060738440128182500, 0.7853981633974439500 ) ;
#532 = VERTEX_POINT ( 'NONE', #625 ) ;
#533 = DIRECTION ( 'NONE',  ( -0.0000000000000000000, -0.0000000000000000000, -1.000000000000000000 ) ) ;
#534 = COORDINATED_UNIVERSAL_TIME_OFFSET ( 5, 30, .AHEAD. ) ;
#535 = CARTESIAN_POINT ( 'NONE',  ( 0.0000000000000000000, 0.0000000000000000000, 0.0000000000000000000 ) ) ;
#536 = CIRCLE ( 'NONE', #513, 5.273502691896288400 ) ;
#537 = EDGE_CURVE ( 'NONE', #426, #286, #97, .T. ) ;
#538 = CC_DESIGN_APPROVAL ( #917, ( #571 ) ) ;
#539 = EDGE_CURVE ( 'NONE', #729, #426, #869, .T. ) ;
#540 = EDGE_LOOP ( 'NONE', ( #676, #813, #697, #804, #461, #749, #829, #394 ) ) ;
#541 = ORIENTED_EDGE ( 'NONE', *, *, #330, .F. ) ;
#542 = CARTESIAN_POINT ( 'NONE',  ( -3.072760745196433200E-015, -5.773502691896268900, 5.500000000000015100 ) ) ;
#543 = EDGE_CURVE ( 'NONE', #147, #10, #311, .T. ) ;
#544 = EDGE_CURVE ( 'NONE', #472, #335, #673, .T. ) ;
#545 = ORIENTED_EDGE ( 'NONE', *, *, #187, .F. ) ;
#546 = CARTESIAN_POINT ( 'NONE',  ( -5.000000000000004400, 1.676254945238748500, 6.000000000000000000 ) ) ;
#547 = CARTESIAN_POINT ( 'NONE',  ( -4.131949333452027400, 3.387920631949827800, 5.933834187608421300 ) ) ;
#548 = APPROVAL_PERSON_ORGANIZATION ( #777, #133, #45 ) ;
#549 = CARTESIAN_POINT ( 'NONE',  ( 4.999999999999996400, -1.676254945238771200, 0.0000000000000000000 ) ) ;
#550 = ADVANCED_FACE ( 'NONE', ( #135 ), #884, .F. ) ;
#551 = DATE_AND_TIME ( #188, #768 ) ;
#552 = ADVANCED_FACE ( 'NONE', ( #141 ), #179, .T. ) ;
#553 = VERTEX_POINT ( 'NONE', #3 ) ;
#554 = DIRECTION ( 'NONE',  ( -0.0000000000000000000, -0.0000000000000000000, 1.000000000000000000 ) ) ;
#555 = CARTESIAN_POINT ( 'NONE',  ( -5.000000000000004400, -1.676254945238748500, 6.000000000000000000 ) ) ;
#556 = DIRECTION ( 'NONE',  ( 0.0000000000000000000, 0.0000000000000000000, 1.000000000000000000 ) ) ;
#557 = ADVANCED_FACE ( 'NONE', ( #227 ), #913, .T. ) ;
#558 = ADVANCED_FACE ( 'NONE', ( #174 ), #121, .F. ) ;
#559 = DIRECTION ( 'NONE',  ( 1.000000000000000000, 0.0000000000000000000, 0.0000000000000000000 ) ) ;
#560 = EDGE_CURVE ( 'NONE', #160, #319, #881, .T. ) ;
#561 = ORIENTED_EDGE ( 'NONE', *, *, #258, .F. ) ;
#562 = DIRECTION ( 'NONE',  ( 0.0000000000000000000, 0.0000000000000000000, 1.000000000000000000 ) ) ;
#563 = CARTESIAN_POINT ( 'NONE',  ( -0.6863486535433871400, -5.377239112015058000, 0.1328572389223854600 ) ) ;
#564 = ORGANIZATION ( 'UNSPECIFIED', 'UNSPECIFIED', '' ) ;
#565 = VECTOR ( 'NONE', #575, 1000.000000000000000 ) ;
#566 = CC_DESIGN_PERSON_AND_ORGANIZATION_ASSIGNMENT ( #692, #782, ( #441 ) ) ;
#567 = EDGE_CURVE ( 'NONE', #35, #2, #724, .T. ) ;
#568 = DIRECTION ( 'NONE',  ( 1.000000000000000000, 0.0000000000000000000, 0.0000000000000000000 ) ) ;
#569 = CARTESIAN_POINT ( 'NONE',  ( 0.0000000000000000000, 0.0000000000000000000, 0.0000000000000000000 ) ) ;
#570 = VECTOR ( 'NONE', #909, 1000.000000000000000 ) ;
#571 = PRODUCT_DEFINITION ( 'UNKNOWN', '', #441, #485 ) ;
#572 = FACE_OUTER_BOUND ( 'NONE', #515, .T. ) ;
#573 = VERTEX_POINT ( 'NONE', #102 ) ;
#574 = ORIENTED_EDGE ( 'NONE', *, *, #112, .T. ) ;
#575 = DIRECTION ( 'NONE',  ( -0.0000000000000000000, -0.0000000000000000000, -1.000000000000000000 ) ) ;
#576 = ORIENTED_EDGE ( 'NONE', *, *, #805, .T. ) ;
#577 = VERTEX_POINT ( 'NONE', #638 ) ;
#578 = ORIENTED_EDGE ( 'NONE', *, *, #474, .T. ) ;
#579 = CARTESIAN_POINT ( 'NONE',  ( -3.951679365796035600, -3.491999546302840600, 0.0000000000000000000 ) ) ;
#580 = CARTESIAN_POINT ( 'NONE',  ( -5.000000000000004400, -2.495350358951672100, 0.3042995065017414200 ) ) ;
#581 = DIRECTION ( 'NONE',  ( 0.0000000000000000000, 0.0000000000000000000, 1.000000000000000000 ) ) ;
#582 = DATE_TIME_ROLE ( 'creation_date' ) ;
#583 = ORIENTED_EDGE ( 'NONE', *, *, #254, .F. ) ;
#584 = DIRECTION ( 'NONE',  ( 0.0000000000000000000, 0.0000000000000000000, 1.000000000000000000 ) ) ;
#585 = VECTOR ( 'NONE', #59, 1000.000000000000000 ) ;
#586 = VERTEX_POINT ( 'NONE', #287 ) ;
#587 = CARTESIAN_POINT ( 'NONE',  ( 4.131949333452001700, -3.387920631949863400, 5.933834187608418600 ) ) ;
#588 = B_SPLINE_CURVE_WITH_KNOTS ( 'NONE', 3,
 ( #886, #56, #148, #244, #338, #440 ),
 .UNSPECIFIED., .F., .F.,
 ( 4, 2, 4 ),
 ( 0.009612507750627193400, 0.01026677219241846700, 0.01092103663420974100 ),
 .UNSPECIFIED. ) ;
#589 = CARTESIAN_POINT ( 'NONE',  ( 0.0000000000000000000, 0.0000000000000000000, 6.000000000000000000 ) ) ;
#590 = FACE_OUTER_BOUND ( 'NONE', #540, .T. ) ;
#591 = ORIENTED_EDGE ( 'NONE', *, *, #397, .F. ) ;
#592 = CARTESIAN_POINT ( 'NONE',  ( -4.831902250398156800, -2.983802626930937700, 0.4029487190171542900 ) ) ;
#593 = ORIENTED_EDGE ( 'NONE', *, *, #469, .T. ) ;
#594 = ORIENTED_EDGE ( 'NONE', *, *, #46, .T. ) ;
#595 = CARTESIAN_POINT ( 'NONE',  ( 3.951679365796082300, 3.491999546302788200, 1.707532272126318500E-016 ) ) ;
#596 = DIRECTION ( 'NONE',  ( -0.4999999999999998900, -0.8660254037844387100, 0.0000000000000000000 ) ) ;
#597 = APPROVAL_ROLE ( '' ) ;
#598 = AXIS2_PLACEMENT_3D ( 'NONE', #86, #206, #144 ) ;
#599 = ORIENTED_EDGE ( 'NONE', *, *, #52, .T. ) ;
#600 = CARTESIAN_POINT ( 'NONE',  ( -0.6891510546992617400, 5.375621144953313100, 0.1429998904574065800 ) ) ;
#601 = B_SPLINE_CURVE_WITH_KNOTS ( 'NONE', 3,
 ( #807, #912, #78, #171 ),
 .UNSPECIFIED., .F., .F.,
 ( 4, 4 ),
 ( 0.004897086451132915000, 0.006207842442394451700 ),
 .UNSPECIFIED. ) ;
#602 = LINE ( 'NONE', #691, #463 ) ;
#603 = CONICAL_SURFACE ( 'NONE', #208, 3.000000000000000400, 0.7853981633974509400 ) ;
#604 = PERSON_AND_ORGANIZATION_ROLE ( 'classification_officer' ) ;
#605 = AXIS2_PLACEMENT_3D ( 'NONE', #610, #468, #154 ) ;
#606 = ORIENTED_EDGE ( 'NONE', *, *, #194, .F. ) ;
#607 = DIRECTION ( 'NONE',  ( 1.000000000000000000, 0.0000000000000000000, 0.0000000000000000000 ) ) ;
#608 = CARTESIAN_POINT ( 'NONE',  ( 0.3387287364355205900, 5.577937564732935400, 0.3044348728366496600 ) ) ;
#609 = CIRCLE ( 'NONE', #880, 3.500000000000001800 ) ;
#610 = CARTESIAN_POINT ( 'NONE',  ( 0.0000000000000000000, 0.0000000000000000000, 0.7872357482319007900 ) ) ;
#611 = PLANE ( 'NONE',  #655 ) ;
#612 = VECTOR ( 'NONE', #662, 1000.000000000000000 ) ;
#613 = ORIENTED_EDGE ( 'NONE', *, *, #747, .F. ) ;
#614 = ORIENTED_EDGE ( 'NONE', *, *, #543, .F. ) ;
#615 = CARTESIAN_POINT ( 'NONE',  ( 7.204740682582895900E-016, 5.773502691896244900, 6.000000000000000000 ) ) ;
#616 = EDGE_CURVE ( 'NONE', #729, #762, #732, .T. ) ;
#617 = VERTEX_POINT ( 'NONE', #77 ) ;
#618 = DIRECTION ( 'NONE',  ( 1.000000000000000000, 0.0000000000000000000, 0.0000000000000000000 ) ) ;
#619 = DIRECTION ( 'NONE',  ( 0.0000000000000000000, 0.0000000000000000000, 1.000000000000000000 ) ) ;
#620 = EDGE_CURVE ( 'NONE', #335, #143, #362, .T. ) ;
#621 = APPROVAL_DATE_TIME ( #551, #917 ) ;
#622 = CONICAL_SURFACE ( 'NONE', #239, 6.060738440128182500, 0.7853981633974439500 ) ;
#623 = DIRECTION ( 'NONE',  ( 0.0000000000000000000, 0.0000000000000000000, 1.000000000000000000 ) ) ;
#624 = ORIENTED_EDGE ( 'NONE', *, *, #487, .T. ) ;
#625 = CARTESIAN_POINT ( 'NONE',  ( -3.951679365796037000, -3.491999546302839700, 6.000000000000000000 ) ) ;
#626 = ADVANCED_FACE ( 'NONE', ( #390 ), #350, .F. ) ;
#627 = CARTESIAN_POINT ( 'NONE',  ( -3.000000000000000400, 0.0000000000000000000, 0.5000000000000038900 ) ) ;
#628 = DIRECTION ( 'NONE',  ( 1.000000000000000000, 0.0000000000000000000, 0.0000000000000000000 ) ) ;
#629 = EDGE_CURVE ( 'NONE', #472, #346, #197, .T. ) ;
#630 = EDGE_LOOP ( 'NONE', ( #705, #916, #508 ) ) ;
#631 = DIRECTION ( 'NONE',  ( -0.0000000000000000000, -0.0000000000000000000, -1.000000000000000000 ) ) ;
#632 = CC_DESIGN_PERSON_AND_ORGANIZATION_ASSIGNMENT ( #483, #856, ( #571 ) ) ;
#633 = EDGE_LOOP ( 'NONE', ( #815, #54, #47, #870 ) ) ;
#634 = VECTOR ( 'NONE', #15, 1000.000000000000000 ) ;
#635 = CARTESIAN_POINT ( 'NONE',  ( -5.000000000000004400, 1.676254945238747400, 0.0000000000000000000 ) ) ;
#636 = FACE_OUTER_BOUND ( 'NONE', #211, .T. ) ;
#637 = ORIENTED_EDGE ( 'NONE', *, *, #112, .F. ) ;
#638 = CARTESIAN_POINT ( 'NONE',  ( 3.951679365796340700, -3.491999546302663000, -1.919590079348089400E-013 ) ) ;
#639 = CARTESIAN_POINT ( 'NONE',  ( 0.3387287364356000300, -5.577937564732912400, 5.695565127163374300 ) ) ;
#640 = CARTESIAN_POINT ( 'NONE',  ( -2.957044141037850300E-015, -5.773502691896268900, 0.4999999999999850700 ) ) ;
#641 = ORIENTED_EDGE ( 'NONE', *, *, #812, .F. ) ;
#642 = CARTESIAN_POINT ( 'NONE',  ( -5.000000000000004400, 2.090961916318066800, 5.868179718166271800 ) ) ;
#643 = DIRECTION ( 'NONE',  ( 1.000000000000000000, 0.0000000000000000000, 0.0000000000000000000 ) ) ;
#644 = DIRECTION ( 'NONE',  ( 1.000000000000000000, 0.0000000000000000000, 0.0000000000000000000 ) ) ;
#645 = PERSON_AND_ORGANIZATION ( #161, #564 ) ;
#646 = ORIENTED_EDGE ( 'NONE', *, *, #408, .F. ) ;
#647 = DIRECTION ( 'NONE',  ( -1.000000000000000000, -6.009258394948631200E-016, 0.0000000000000000000 ) ) ;
#648 = CARTESIAN_POINT ( 'NONE',  ( -1.048320634203673500, -5.168254491541739900, -1.937174206227583400E-013 ) ) ;
#649 = FACE_OUTER_BOUND ( 'NONE', #372, .T. ) ;
#650 = CARTESIAN_POINT ( 'NONE',  ( 0.0000000000000000000, 0.0000000000000000000, 6.000000000000000000 ) ) ;
#651 = CARTESIAN_POINT ( 'NONE',  ( 4.999999999999993800, 2.496223106883658900, 5.695264119532268400 ) ) ;
#652 = AXIS2_PLACEMENT_3D ( 'NONE', #763, #308, #411 ) ;
#653 = VECTOR ( 'NONE', #295, 1000.000000000000000 ) ;
#654 = ORIENTED_EDGE ( 'NONE', *, *, #328, .T. ) ;
#655 = AXIS2_PLACEMENT_3D ( 'NONE', #851, #819, #446 ) ;
#656 = VERTEX_POINT ( 'NONE', #216 ) ;
#657 = CARTESIAN_POINT ( 'NONE',  ( -5.000000000000004400, -2.886751345948139800, 0.4999999999999823500 ) ) ;
#658 = DIRECTION ( 'NONE',  ( 1.000000000000000000, 0.0000000000000000000, 0.0000000000000000000 ) ) ;
#659 = B_SPLINE_CURVE_WITH_KNOTS ( 'NONE', 3,
 ( #579, #883, #524, #439, #592, #332 ),
 .UNSPECIFIED., .F., .F.,
 ( 4, 2, 4 ),
 ( 0.009612507750627196900, 0.01026677219241847000, 0.01092103663420974200 ),
 .UNSPECIFIED. ) ;
#660 = FACE_OUTER_BOUND ( 'NONE', #361, .T. ) ;
#661 = VERTEX_POINT ( 'NONE', #410 ) ;
#662 = DIRECTION ( 'NONE',  ( 0.7071067811865493500, 0.0000000000000000000, 0.7071067811865456900 ) ) ;
#663 = DIRECTION ( 'NONE',  ( 1.000000000000000000, 0.0000000000000000000, 0.0000000000000000000 ) ) ;
#664 = B_SPLINE_CURVE_WITH_KNOTS ( 'NONE', 3,
 ( #159, #68, #900, #795 ),
 .UNSPECIFIED., .F., .F.,
 ( 4, 4 ),
 ( 0.004204090619840181500, 0.005507968881931588800 ),
 .UNSPECIFIED. ) ;
#665 = FACE_OUTER_BOUND ( 'NONE', #153, .T. ) ;
#666 = DIRECTION ( 'NONE',  ( -0.0000000000000000000, -0.0000000000000000000, -1.000000000000000000 ) ) ;
#667 = ORIENTED_EDGE ( 'NONE', *, *, #752, .T. ) ;
#668 = CARTESIAN_POINT ( 'NONE',  ( 4.310848945300700800, -3.284632892891098200, 5.857000109542593900 ) ) ;
#669 = ADVANCED_FACE ( 'NONE', ( #721 ), #384, .T. ) ;
#670 = DIRECTION ( 'NONE',  ( 1.000000000000000000, 0.0000000000000000000, 0.0000000000000000000 ) ) ;
#671 = EDGE_CURVE ( 'NONE', #147, #532, #876, .T. ) ;
#672 = VECTOR ( 'NONE', #169, 1000.000000000000000 ) ;
#673 = CIRCLE ( 'NONE', #741, 3.000000000000000400 ) ;
#674 = ORIENTED_EDGE ( 'NONE', *, *, #796, .F. ) ;
#675 = CARTESIAN_POINT ( 'NONE',  ( 0.0000000000000000000, 0.0000000000000000000, 5.500000000000001800 ) ) ;
#676 = ORIENTED_EDGE ( 'NONE', *, *, #52, .F. ) ;
#677 = ORIENTED_EDGE ( 'NONE', *, *, #266, .T. ) ;
#678 = ADVANCED_FACE ( 'NONE', ( #90 ), #801, .F. ) ;
#679 = AXIS2_PLACEMENT_3D ( 'NONE', #366, #466, #568 ) ;
#680 = EDGE_CURVE ( 'NONE', #656, #491, #103, .T. ) ;
#681 = CARTESIAN_POINT ( 'NONE',  ( 4.999999999999993800, 2.495350358951667700, 0.3042995065017310400 ) ) ;
#682 = ORIENTED_EDGE ( 'NONE', *, *, #38, .F. ) ;
#683 = CARTESIAN_POINT ( 'NONE',  ( -0.3391818500337378500, 5.577675959475028500, 0.3114576294202375800 ) ) ;
#684 = CARTESIAN_POINT ( 'NONE',  ( 4.999999999999993800, 2.886751345948120700, 6.000000000000000000 ) ) ;
#685 = EDGE_CURVE ( 'NONE', #110, #259, #757, .T. ) ;
#686 = PERSON_AND_ORGANIZATION_ROLE ( 'design_supplier' ) ;
#687 = ADVANCED_FACE ( 'NONE', ( #572 ), #200, .T. ) ;
#688 = AXIS2_PLACEMENT_3D ( 'NONE', #489, #715, #618 ) ;
#689 = ORIENTED_EDGE ( 'NONE', *, *, #241, .T. ) ;
#690 = CARTESIAN_POINT ( 'NONE',  ( 0.0000000000000000000, 0.0000000000000000000, 0.7872357482319007900 ) ) ;
#691 = CARTESIAN_POINT ( 'NONE',  ( 3.000000000000000400, 3.673940397442060400E-016, 6.000000000000000000 ) ) ;
#692 = PERSON_AND_ORGANIZATION ( #161, #564 ) ;
#693 = ORIENTED_EDGE ( 'NONE', *, *, #739, .F. ) ;
#694 = CARTESIAN_POINT ( 'NONE',  ( -5.000000000000004400, 2.886751345948120700, 6.000000000000000000 ) ) ;
#695 = SECURITY_CLASSIFICATION ( '', '', #503 ) ;
#696 = CARTESIAN_POINT ( 'NONE',  ( 0.6863486535433427300, 5.377239112015059800, 0.1328572389223823000 ) ) ;
#697 = ORIENTED_EDGE ( 'NONE', *, *, #760, .F. ) ;
#698 = CC_DESIGN_PERSON_AND_ORGANIZATION_ASSIGNMENT ( #25, #686, ( #441 ) ) ;
#699 =( GEOMETRIC_REPRESENTATION_CONTEXT ( 3 ) GLOBAL_UNCERTAINTY_ASSIGNED_CONTEXT ( ( #451 ) ) GLOBAL_UNIT_ASSIGNED_CONTEXT ( ( #400, #789, #773 ) ) REPRESENTATION_CONTEXT ( 'NONE', 'WORKASPACE' ) );
#700 = CARTESIAN_POINT ( 'NONE',  ( 0.0000000000000000000, 0.0000000000000000000, 5.212764251768099700 ) ) ;
#701 = CIRCLE ( 'NONE', #79, 5.273502691896288400 ) ;
#702 = VERTEX_POINT ( 'NONE', #730 ) ;
#703 = ORIENTED_EDGE ( 'NONE', *, *, #106, .T. ) ;
#704 = DIRECTION ( 'NONE',  ( 1.000000000000000000, 0.0000000000000000000, 0.0000000000000000000 ) ) ;
#705 = ORIENTED_EDGE ( 'NONE', *, *, #399, .T. ) ;
#706 = CARTESIAN_POINT ( 'NONE',  ( 0.0000000000000000000, 0.0000000000000000000, 6.000000000000000000 ) ) ;
#707 = PERSON_AND_ORGANIZATION ( #161, #564 ) ;
#708 = EDGE_LOOP ( 'NONE', ( #871, #380, #613, #736, #228, #280, #447, #868 ) ) ;
#709 = CARTESIAN_POINT ( 'NONE',  ( -4.661271263564401600, -3.082316473111496300, 5.695565127163375200 ) ) ;
#710 = CARTESIAN_POINT ( 'NONE',  ( -5.000000000000004400, 2.886751345948120700, 0.4999999999999736900 ) ) ;
#711 = CARTESIAN_POINT ( 'NONE',  ( -5.000000000000004400, -2.886751345948139800, 5.500000000000016900 ) ) ;
#712 = FACE_OUTER_BOUND ( 'NONE', #478, .T. ) ;
#713 = CARTESIAN_POINT ( 'NONE',  ( 0.0000000000000000000, 0.0000000000000000000, 6.000000000000000000 ) ) ;
#714 = VERTEX_POINT ( 'NONE', #924 ) ;
#715 = DIRECTION ( 'NONE',  ( -0.0000000000000000000, -0.0000000000000000000, 1.000000000000000000 ) ) ;
#716 = DIRECTION ( 'NONE',  ( -1.000000000000000000, 0.0000000000000000000, 0.0000000000000000000 ) ) ;
#717 = AXIS2_PLACEMENT_3D ( 'NONE', #506, #879, #49 ) ;
#718 = DIRECTION ( 'NONE',  ( 1.000000000000000000, 0.0000000000000000000, 0.0000000000000000000 ) ) ;
#719 = ORIENTED_EDGE ( 'NONE', *, *, #805, .F. ) ;
#720 = CARTESIAN_POINT ( 'NONE',  ( -1.048320634203909100, 5.168254491541580900, 6.000000000000000000 ) ) ;
#721 = FACE_OUTER_BOUND ( 'NONE', #630, .T. ) ;
#722 = CARTESIAN_POINT ( 'NONE',  ( 0.3391818500337571700, -5.577675959475042700, 0.3114576294202497400 ) ) ;
#723 = ORIENTED_EDGE ( 'NONE', *, *, #38, .T. ) ;
#724 = LINE ( 'NONE', #448, #769 ) ;
#725 = ORIENTED_EDGE ( 'NONE', *, *, #567, .F. ) ;
#726 = ORIENTED_EDGE ( 'NONE', *, *, #258, .T. ) ;
#727 = CALENDAR_DATE ( 2014, 11, 6 ) ;
#728 = CARTESIAN_POINT ( 'NONE',  ( 0.0000000000000000000, 0.0000000000000000000, 5.212764251768099700 ) ) ;
#729 = VERTEX_POINT ( 'NONE', #283 ) ;
#730 = CARTESIAN_POINT ( 'NONE',  ( 4.999999999999997300, -2.886751345948143300, 0.4999999999999782400 ) ) ;
#731 = DIRECTION ( 'NONE',  ( -0.0000000000000000000, -0.0000000000000000000, -1.000000000000000000 ) ) ;
#732 = B_SPLINE_CURVE_WITH_KNOTS ( 'NONE', 3,
 ( #127, #798, #642, #546 ),
 .UNSPECIFIED., .F., .F.,
 ( 4, 4 ),
 ( 0.004204090619840172000, 0.005507968881931580100 ),
 .UNSPECIFIED. ) ;
#733 = CARTESIAN_POINT ( 'NONE',  ( 0.0000000000000000000, 0.0000000000000000000, 6.000000000000000000 ) ) ;
#734 = APPROVAL_ROLE ( '' ) ;
#735 = CARTESIAN_POINT ( 'NONE',  ( 4.999999999999993800, 2.886751345948120700, 0.4999999999999642500 ) ) ;
#736 = ORIENTED_EDGE ( 'NONE', *, *, #685, .T. ) ;
#737 = CARTESIAN_POINT ( 'NONE',  ( 0.0000000000000000000, 0.0000000000000000000, 5.500000000000001800 ) ) ;
#738 = CARTESIAN_POINT ( 'NONE',  ( 1.048320634203906600, 5.168254491541580900, 6.000000000000000000 ) ) ;
#739 = EDGE_CURVE ( 'NONE', #866, #14, #479, .T. ) ;
#740 = VECTOR ( 'NONE', #36, 1000.000000000000000 ) ;
#741 = AXIS2_PLACEMENT_3D ( 'NONE', #675, #784, #607 ) ;
#742 = DIRECTION ( 'NONE',  ( 0.0000000000000000000, 0.0000000000000000000, -1.000000000000000000 ) ) ;
#743 = CIRCLE ( 'NONE', #786, 5.273502691896288400 ) ;
#744 = CARTESIAN_POINT ( 'NONE',  ( 3.951679365796082300, 3.491999546302788200, 6.000000000000000000 ) ) ;
#745 = ADVANCED_FACE ( 'NONE', ( #809 ), #376, .F. ) ;
#746 = DIRECTION ( 'NONE',  ( 1.000000000000000000, 0.0000000000000000000, 0.0000000000000000000 ) ) ;
#747 = EDGE_CURVE ( 'NONE', #110, #10, #659, .T. ) ;
#748 = AXIS2_PLACEMENT_3D ( 'NONE', #728, #452, #374 ) ;
#749 = ORIENTED_EDGE ( 'NONE', *, *, #837, .F. ) ;
#750 = CARTESIAN_POINT ( 'NONE',  ( 7.513844010869493400E-016, 5.773502691896244900, 0.4999999999999606400 ) ) ;
#751 = EDGE_LOOP ( 'NONE', ( #594, #318, #444 ) ) ;
#752 = EDGE_CURVE ( 'NONE', #261, #438, #231, .T. ) ;
#753 = AXIS2_PLACEMENT_3D ( 'NONE', #684, #596, #501 ) ;
#754 = ADVANCED_FACE ( 'NONE', ( #712 ), #115, .F. ) ;
#755 = CARTESIAN_POINT ( 'NONE',  ( 0.0000000000000000000, 0.0000000000000000000, 6.000000000000000000 ) ) ;
#756 = ORIENTED_EDGE ( 'NONE', *, *, #567, .T. ) ;
#757 = LINE ( 'NONE', #212, #634 ) ;
#758 = DIRECTION ( 'NONE',  ( 1.000000000000000000, 0.0000000000000000000, 0.0000000000000000000 ) ) ;
#759 = CARTESIAN_POINT ( 'NONE',  ( 4.999999999999996400, -1.676254945238771200, 0.0000000000000000000 ) ) ;
#760 = EDGE_CURVE ( 'NONE', #319, #64, #300, .T. ) ;
#761 = ADVANCED_FACE ( 'NONE', ( #665 ), #603, .F. ) ;
#762 = VERTEX_POINT ( 'NONE', #98 ) ;
#763 = CARTESIAN_POINT ( 'NONE',  ( 0.0000000000000000000, 0.0000000000000000000, 0.0000000000000000000 ) ) ;
#764 = CONICAL_SURFACE ( 'NONE', #354, 6.060738440128182500, 0.7853981633974439500 ) ;
#765 = ORIENTED_EDGE ( 'NONE', *, *, #187, .T. ) ;
#766 = CARTESIAN_POINT ( 'NONE',  ( 4.660818149966235800, -3.082578078369370400, 5.688542370579755300 ) ) ;
#767 = CARTESIAN_POINT ( 'NONE',  ( 4.313651346456622600, -3.283014925829348000, 0.1328572389223854100 ) ) ;
#768 = LOCAL_TIME ( 22, 14, 9.000000000000000000, #817 ) ;
#769 = VECTOR ( 'NONE', #73, 1000.000000000000000 ) ;
#770 = ORIENTED_EDGE ( 'NONE', *, *, #321, .F. ) ;
#771 = VERTEX_POINT ( 'NONE', #889 ) ;
#772 = EDGE_CURVE ( 'NONE', #27, #129, #329, .T. ) ;
#773 =( NAMED_UNIT ( * ) SI_UNIT ( $, .STERADIAN. ) SOLID_ANGLE_UNIT ( ) );
#774 = EDGE_LOOP ( 'NONE', ( #495, #11, #593, #606 ) ) ;
#775 = CARTESIAN_POINT ( 'NONE',  ( -3.951679365796037000, -3.491999546302839700, 6.000000000000000000 ) ) ;
#776 = CARTESIAN_POINT ( 'NONE',  ( 7.513844010869493400E-016, 5.773502691896244900, 0.4999999999999606400 ) ) ;
#777 = PERSON_AND_ORGANIZATION ( #161, #564 ) ;
#778 = ORIENTED_EDGE ( 'NONE', *, *, #325, .T. ) ;
#779 = CARTESIAN_POINT ( 'NONE',  ( -0.8680506665479548200, 5.272333405894549700, 0.06616581239158039800 ) ) ;
#780 = FACE_OUTER_BOUND ( 'NONE', #34, .T. ) ;
#781 = DIRECTION ( 'NONE',  ( -0.0000000000000000000, -0.0000000000000000000, -1.000000000000000000 ) ) ;
#782 = PERSON_AND_ORGANIZATION_ROLE ( 'creator' ) ;
#783 = EDGE_LOOP ( 'NONE', ( #857, #277, #343, #101, #279, #790, #797, #8 ) ) ;
#784 = DIRECTION ( 'NONE',  ( 0.0000000000000000000, 0.0000000000000000000, 1.000000000000000000 ) ) ;
#785 = CARTESIAN_POINT ( 'NONE',  ( 1.048320634203606000, 5.168254491541754100, -1.935840310281416900E-013 ) ) ;
#786 = AXIS2_PLACEMENT_3D ( 'NONE', #589, #864, #704 ) ;
#787 = CARTESIAN_POINT ( 'NONE',  ( -3.951679365796072900, 3.491999546302798900, 6.000000000000000000 ) ) ;
#788 = APPLICATION_CONTEXT ( 'configuration controlled 3d designs of mechanical parts and assemblies' ) ;
#789 =( NAMED_UNIT ( * ) PLANE_ANGLE_UNIT ( ) SI_UNIT ( $, .RADIAN. ) );
#790 = ORIENTED_EDGE ( 'NONE', *, *, #539, .F. ) ;
#791 = ORIENTED_EDGE ( 'NONE', *, *, #680, .F. ) ;
#792 = LINE ( 'NONE', #186, #740 ) ;
#793 = FACE_OUTER_BOUND ( 'NONE', #751, .T. ) ;
#794 = EDGE_LOOP ( 'NONE', ( #116, #196, #139 ) ) ;
#795 = CARTESIAN_POINT ( 'NONE',  ( 4.999999999999994700, -1.676254945238773600, 6.000000000000000000 ) ) ;
#796 = EDGE_CURVE ( 'NONE', #261, #286, #810, .T. ) ;
#797 = ORIENTED_EDGE ( 'NONE', *, *, #404, .F. ) ;
#798 = CARTESIAN_POINT ( 'NONE',  ( -5.000000000000004400, 2.495350358951675200, 5.695700493498257800 ) ) ;
#799 = DIRECTION ( 'NONE',  ( -0.8660254037844387100, 0.4999999999999999400, 0.0000000000000000000 ) ) ;
#800 = LINE ( 'NONE', #906, #342 ) ;
#801 = CYLINDRICAL_SURFACE ( 'NONE', #414, 3.000000000000000400 ) ;
#802 = PERSON_AND_ORGANIZATION_ROLE ( 'design_owner' ) ;
#803 = ADVANCED_FACE ( 'NONE', ( #793 ), #907, .T. ) ;
#804 = ORIENTED_EDGE ( 'NONE', *, *, #529, .T. ) ;
#805 = EDGE_CURVE ( 'NONE', #129, #242, #536, .T. ) ;
#806 = B_SPLINE_CURVE_WITH_KNOTS ( 'NONE', 3,
 ( #284, #192, #95, #925 ),
 .UNSPECIFIED., .F., .F.,
 ( 4, 4 ),
 ( 0.004897086451132918500, 0.006207842442394451700 ),
 .UNSPECIFIED. ) ;
#807 = CARTESIAN_POINT ( 'NONE',  ( 4.999999999999993800, 2.886751345948120700, 5.500000000000036400 ) ) ;
#808 = CIRCLE ( 'NONE', #467, 5.273502691896288400 ) ;
#809 = FACE_OUTER_BOUND ( 'NONE', #708, .T. ) ;
#810 = LINE ( 'NONE', #433, #850 ) ;
#811 = CIRCLE ( 'NONE', #146, 5.273502691896288400 ) ;
#812 = EDGE_CURVE ( 'NONE', #64, #160, #530, .T. ) ;
#813 = ORIENTED_EDGE ( 'NONE', *, *, #254, .T. ) ;
#814 = ADVANCED_FACE ( 'NONE', ( #846 ), #531, .T. ) ;
#815 = ORIENTED_EDGE ( 'NONE', *, *, #118, .F. ) ;
#816 = AXIS2_PLACEMENT_3D ( 'NONE', #71, #477, #5 ) ;
#817 = COORDINATED_UNIVERSAL_TIME_OFFSET ( 5, 30, .AHEAD. ) ;
#818 = ADVANCED_FACE ( 'NONE', ( #839 ), #61, .T. ) ;
#819 = DIRECTION ( 'NONE',  ( 0.0000000000000000000, 0.0000000000000000000, 1.000000000000000000 ) ) ;
#820 = EDGE_CURVE ( 'NONE', #714, #27, #240, .T. ) ;
#821 = EDGE_LOOP ( 'NONE', ( #765, #778 ) ) ;
#822 = CARTESIAN_POINT ( 'NONE',  ( 0.0000000000000000000, 0.0000000000000000000, 0.0000000000000000000 ) ) ;
#823 = CARTESIAN_POINT ( 'NONE',  ( -2.810791057955210500E-015, -5.773502691896268900, 0.0000000000000000000 ) ) ;
#824 = EDGE_CURVE ( 'NONE', #114, #852, #833, .T. ) ;
#825 = PERSON_AND_ORGANIZATION ( #161, #564 ) ;
#826 = CYLINDRICAL_SURFACE ( 'NONE', #473, 3.000000000000000400 ) ;
#827 = ADVANCED_FACE ( 'NONE', ( #649 ), #845, .F. ) ;
#828 = CARTESIAN_POINT ( 'NONE',  ( 0.1680977496018472300, -5.676451410913471400, 0.4029487190171566800 ) ) ;
#829 = ORIENTED_EDGE ( 'NONE', *, *, #106, .F. ) ;
#830 = CARTESIAN_POINT ( 'NONE',  ( 4.831902250398154100, 2.983802626930914600, 0.4029487190171410800 ) ) ;
#831 = CARTESIAN_POINT ( 'NONE',  ( 0.0000000000000000000, 0.0000000000000000000, 0.5000000000000038900 ) ) ;
#832 = DIRECTION ( 'NONE',  ( -0.0000000000000000000, -0.0000000000000000000, -1.000000000000000000 ) ) ;
#833 = LINE ( 'NONE', #162, #887 ) ;
#834 = PRODUCT_RELATED_PRODUCT_CATEGORY ( 'detail', '', ( #360 ) ) ;
#835 = ORIENTED_EDGE ( 'NONE', *, *, #194, .T. ) ;
#836 = CARTESIAN_POINT ( 'NONE',  ( 4.999999999999997300, -2.886751345948143300, 6.000000000000000000 ) ) ;
#837 = EDGE_CURVE ( 'NONE', #617, #438, #875, .T. ) ;
#838 = CARTESIAN_POINT ( 'NONE',  ( 0.8680506665479547100, 5.272333405894547900, 5.933834187608421300 ) ) ;
#839 = FACE_OUTER_BOUND ( 'NONE', #504, .T. ) ;
#840 = AXIS2_PLACEMENT_3D ( 'NONE', #822, #562, #55 ) ;
#841 = PLANE ( 'NONE',  #816 ) ;
#842 = CC_DESIGN_PERSON_AND_ORGANIZATION_ASSIGNMENT ( #825, #604, ( #695 ) ) ;
#843 = LINE ( 'NONE', #7, #919 ) ;
#844 = LINE ( 'NONE', #134, #234 ) ;
#845 = CONICAL_SURFACE ( 'NONE', #442, 3.500000000000003100, 0.7853981633974469500 ) ;
#846 = FACE_OUTER_BOUND ( 'NONE', #861, .T. ) ;
#847 = ORIENTED_EDGE ( 'NONE', *, *, #760, .T. ) ;
#848 = CARTESIAN_POINT ( 'NONE',  ( -4.313651346456646600, 3.283014925829314600, 0.1328572389223854600 ) ) ;
#849 = LINE ( 'NONE', #615, #272 ) ;
#850 = VECTOR ( 'NONE', #210, 1000.000000000000000 ) ;
#851 = CARTESIAN_POINT ( 'NONE',  ( 0.0000000000000000000, 0.0000000000000000000, 6.000000000000000000 ) ) ;
#852 = VERTEX_POINT ( 'NONE', #415 ) ;
#853 = CARTESIAN_POINT ( 'NONE',  ( 4.131949333452036300, 3.387920631949818500, 0.06616581239158102200 ) ) ;
#854 = DIRECTION ( 'NONE',  ( -0.0000000000000000000, -0.0000000000000000000, -1.000000000000000000 ) ) ;
#855 = CARTESIAN_POINT ( 'NONE',  ( 4.999999999999996400, -2.094979359186493800, 0.1330972809875074500 ) ) ;
#856 = PERSON_AND_ORGANIZATION_ROLE ( 'creator' ) ;
#857 = ORIENTED_EDGE ( 'NONE', *, *, #481, .F. ) ;
#858 = CARTESIAN_POINT ( 'NONE',  ( 3.000000000000000400, 0.0000000000000000000, 5.500000000000001800 ) ) ;
#859 = LINE ( 'NONE', #24, #100 ) ;
#860 = CARTESIAN_POINT ( 'NONE',  ( 0.0000000000000000000, 0.0000000000000000000, 6.000000000000000000 ) ) ;
#861 = EDGE_LOOP ( 'NONE', ( #168, #120, #770 ) ) ;
#862 = AXIS2_PLACEMENT_3D ( 'NONE', #519, #262, #454 ) ;
#863 = CARTESIAN_POINT ( 'NONE',  ( 4.831902250398143500, -2.983802626930944300, 5.597051280982853400 ) ) ;
#864 = DIRECTION ( 'NONE',  ( 0.0000000000000000000, 0.0000000000000000000, 1.000000000000000000 ) ) ;
#865 = APPLICATION_CONTEXT ( 'configuration controlled 3d designs of mechanical parts and assemblies' ) ;
#866 = VERTEX_POINT ( 'NONE', #53 ) ;
#867 = MANIFOLD_SOLID_BREP ( 'Chamfer2', #181 ) ;
#868 = ORIENTED_EDGE ( 'NONE', *, *, #33, .F. ) ;
#869 = LINE ( 'NONE', #694, #565 ) ;
#870 = ORIENTED_EDGE ( 'NONE', *, *, #484, .T. ) ;
#871 = ORIENTED_EDGE ( 'NONE', *, *, #671, .F. ) ;
#872 = CARTESIAN_POINT ( 'NONE',  ( 0.0000000000000000000, 0.0000000000000000000, 0.7872357482319007900 ) ) ;
#873 = CARTESIAN_POINT ( 'NONE',  ( -5.000000000000004400, 2.886751345948120700, 0.4999999999999736900 ) ) ;
#874 = PERSON_AND_ORGANIZATION ( #161, #564 ) ;
#875 = LINE ( 'NONE', #84, #585 ) ;
#876 = B_SPLINE_CURVE_WITH_KNOTS ( 'NONE', 3,
 ( #435, #709, #904, #775 ),
 .UNSPECIFIED., .F., .F.,
 ( 4, 4 ),
 ( 0.004897086451132919400, 0.006207842442394522800 ),
 .UNSPECIFIED. ) ;
#877 = VERTEX_POINT ( 'NONE', #915 ) ;
#878 = DIRECTION ( 'NONE',  ( -0.0000000000000000000, -0.0000000000000000000, 1.000000000000000000 ) ) ;
#879 = DIRECTION ( 'NONE',  ( 0.0000000000000000000, 0.0000000000000000000, -1.000000000000000000 ) ) ;
#880 = AXIS2_PLACEMENT_3D ( 'NONE', #226, #389, #670 ) ;
#881 = CIRCLE ( 'NONE', #840, 5.273502691896288400 ) ;
#882 = ORIENTED_EDGE ( 'NONE', *, *, #172, .T. ) ;
#883 = CARTESIAN_POINT ( 'NONE',  ( -4.131949333451999000, -3.387920631949864300, 0.06616581239158188200 ) ) ;
#884 = CONICAL_SURFACE ( 'NONE', #901, 3.000000000000000400, 0.7853981633974509400 ) ;
#885 = B_SPLINE_CURVE_WITH_KNOTS ( 'NONE', 3,
 ( #759, #855, #17, #124 ),
 .UNSPECIFIED., .F., .F.,
 ( 4, 4 ),
 ( 0.008907927803310884300, 0.01021840846846769200 ),
 .UNSPECIFIED. ) ;
#886 = CARTESIAN_POINT ( 'NONE',  ( -1.048320634203973300, -5.168254491541567600, 6.000000000000000000 ) ) ;
#887 = VECTOR ( 'NONE', #459, 1000.000000000000000 ) ;
#888 = DIRECTION ( 'NONE',  ( 1.000000000000000000, 0.0000000000000000000, 0.0000000000000000000 ) ) ;
#889 = CARTESIAN_POINT ( 'NONE',  ( 4.999999999999993800, 2.886751345948120700, 5.500000000000036400 ) ) ;
#890 = EDGE_CURVE ( 'NONE', #235, #852, #12, .T. ) ;
#891 = ORIENTED_EDGE ( 'NONE', *, *, #117, .T. ) ;
#892 = EDGE_LOOP ( 'NONE', ( #62, #136, #578, #149 ) ) ;
#893 = ADVANCED_FACE ( 'NONE', ( #132, #316 ), #841, .F. ) ;
#894 = AXIS2_PLACEMENT_3D ( 'NONE', #402, #21, #509 ) ;
#895 = FACE_OUTER_BOUND ( 'NONE', #774, .T. ) ;
#896 = DIRECTION ( 'NONE',  ( 1.000000000000000000, 0.0000000000000000000, 0.0000000000000000000 ) ) ;
#897 = ADVANCED_FACE ( 'NONE', ( #248, #780 ), #611, .T. ) ;
#898 = ORIENTED_EDGE ( 'NONE', *, *, #529, .F. ) ;
#899 = CARTESIAN_POINT ( 'NONE',  ( -5.000000000000004400, -2.886751345948139800, 6.000000000000000000 ) ) ;
#900 = CARTESIAN_POINT ( 'NONE',  ( 4.999999999999996400, -2.090961916318089900, 5.868179718166269200 ) ) ;
#901 = AXIS2_PLACEMENT_3D ( 'NONE', #336, #93, #269 ) ;
#902 = EDGE_CURVE ( 'NONE', #39, #866, #701, .T. ) ;
#903 = ORIENTED_EDGE ( 'NONE', *, *, #44, .T. ) ;
#904 = CARTESIAN_POINT ( 'NONE',  ( -4.313651346456493800, -3.283014925829423000, 5.867142761077677600 ) ) ;
#905 = CARTESIAN_POINT ( 'NONE',  ( 4.999999999999993800, 2.886751345948120700, 0.0000000000000000000 ) ) ;
#906 = CARTESIAN_POINT ( 'NONE',  ( 4.999999999999997300, -2.886751345948143300, 6.000000000000000000 ) ) ;
#907 = CONICAL_SURFACE ( 'NONE', #218, 6.060738440128182500, 0.7853981633974439500 ) ;
#908 = DIRECTION ( 'NONE',  ( 0.0000000000000000000, 0.0000000000000000000, 1.000000000000000000 ) ) ;
#909 = DIRECTION ( 'NONE',  ( -0.8660254037844387100, 0.4999999999999999400, 0.0000000000000000000 ) ) ;
#910 = ORIENTED_EDGE ( 'NONE', *, *, #111, .F. ) ;
#911 = DIRECTION ( 'NONE',  ( 0.8660254037844388200, 0.4999999999999996100, 0.0000000000000000000 ) ) ;
#912 = CARTESIAN_POINT ( 'NONE',  ( 4.661271263564409600, 3.082316473111467400, 5.695565127163384900 ) ) ;
#913 = CONICAL_SURFACE ( 'NONE', #296, 6.060738440128182500, 0.7853981633974439500 ) ;
#914 = LOCAL_TIME ( 22, 14, 9.000000000000000000, #83 ) ;
#915 = CARTESIAN_POINT ( 'NONE',  ( 1.048320634203606000, 5.168254491541754100, -1.935840310281416900E-013 ) ) ;
#916 = ORIENTED_EDGE ( 'NONE', *, *, #195, .T. ) ;
#917 = APPROVAL ( #265, 'UNSPECIFIED' ) ;
#918 = ORIENTED_EDGE ( 'NONE', *, *, #560, .F. ) ;
#919 = VECTOR ( 'NONE', #109, 1000.000000000000000 ) ;
#920 = ORIENTED_EDGE ( 'NONE', *, *, #260, .F. ) ;
#921 = CARTESIAN_POINT ( 'NONE',  ( 1.048320634203966600, -5.168254491541568500, 6.000000000000000000 ) ) ;
#922 = LINE ( 'NONE', #425, #653 ) ;
#923 = ORIENTED_EDGE ( 'NONE', *, *, #772, .T. ) ;
#924 = CARTESIAN_POINT ( 'NONE',  ( 4.999999999999992900, 1.676254945238779600, 6.000000000000000000 ) ) ;
#925 = CARTESIAN_POINT ( 'NONE',  ( -1.048320634203909100, 5.168254491541580900, 6.000000000000000000 ) ) ;
ENDSEC;
END-ISO-10303-21;
